mtllib bellows-knee-utility-set.mtl
o vest_front_L
g vest_front_L
usemtl MAT_Shell
v -0.3400 0.1050 1.0500
v -0.0200 0.1050 1.0500
v -0.0200 0.1050 1.4800
v -0.3400 0.1050 1.4800
vt 0.0 0.0
vt 1.0 0.0
vt 1.0 1.0
vt 0.0 1.0
f 1/1 2/2 3/3 4/4
o vest_front_R
g vest_front_R
usemtl MAT_Shell
v 0.0200 0.1050 1.0500
v 0.3400 0.1050 1.0500
v 0.3400 0.1050 1.4800
v 0.0200 0.1050 1.4800
vt 0.0 0.0
vt 1.0 0.0
vt 1.0 1.0
vt 0.0 1.0
f 5/5 6/6 7/7 8/8
o vest_back
g vest_back
usemtl MAT_Shell
v -0.3400 -0.1000 1.0500
v 0.3400 -0.1000 1.0500
v 0.3400 -0.1000 1.4800
v -0.3400 -0.1000 1.4800
vt 0.0 0.0
vt 1.0 0.0
vt 1.0 1.0
vt 0.0 1.0
f 9/9 10/10 11/11 12/12
o inner_front
g inner_front
usemtl MAT_Inner
v -0.2700 0.1450 1.0800
v 0.2700 0.1450 1.0800
v 0.2700 0.1450 1.4400
v -0.2700 0.1450 1.4400
vt 0.0 0.0
vt 1.0 0.0
vt 1.0 1.0
vt 0.0 1.0
f 13/13 14/14 15/15 16/16
o inner_back
g inner_back
usemtl MAT_Inner
v -0.2700 -0.1350 1.0800
v 0.2700 -0.1350 1.0800
v 0.2700 -0.1350 1.4400
v -0.2700 -0.1350 1.4400
vt 0.0 0.0
vt 1.0 0.0
vt 1.0 1.0
vt 0.0 1.0
f 17/17 18/18 19/19 20/20
o trouser_front_L
g trouser_front_L
usemtl MAT_Bottoms
v -0.3400 0.1200 0.1800
v -0.0200 0.1200 0.1800
v -0.0200 0.1200 1.0500
v -0.3400 0.1200 1.0500
vt 0.0 0.0
vt 1.0 0.0
vt 1.0 1.0
vt 0.0 1.0
f 21/21 22/22 23/23 24/24
o trouser_front_R
g trouser_front_R
usemtl MAT_Bottoms
v 0.0200 0.1200 0.1800
v 0.3400 0.1200 0.1800
v 0.3400 0.1200 1.0500
v 0.0200 0.1200 1.0500
vt 0.0 0.0
vt 1.0 0.0
vt 1.0 1.0
vt 0.0 1.0
f 25/25 26/26 27/27 28/28
o trouser_back_L
g trouser_back_L
usemtl MAT_Bottoms
v -0.3400 -0.1200 0.1800
v -0.0200 -0.1200 0.1800
v -0.0200 -0.1200 1.0500
v -0.3400 -0.1200 1.0500
vt 0.0 0.0
vt 1.0 0.0
vt 1.0 1.0
vt 0.0 1.0
f 29/29 30/30 31/31 32/32
o trouser_back_R
g trouser_back_R
usemtl MAT_Bottoms
v 0.0200 -0.1200 0.1800
v 0.3400 -0.1200 0.1800
v 0.3400 -0.1200 1.0500
v 0.0200 -0.1200 1.0500
vt 0.0 0.0
vt 1.0 0.0
vt 1.0 1.0
vt 0.0 1.0
f 33/33 34/34 35/35 36/36
o waistband
g waistband
usemtl MAT_Bottoms
v -0.3500 0.1600 0.9800
v 0.3500 0.1600 0.9800
v 0.3500 0.1600 1.0700
v -0.3500 0.1600 1.0700
vt 0.0 0.0
vt 1.0 0.0
vt 1.0 1.0
vt 0.0 1.0
f 37/37 38/38 39/39 40/40
o bellows_knee_L_outer
g bellows_knee_L_outer
usemtl MAT_Hero
v -0.3400 0.1850 0.4800
v -0.0300 0.1850 0.4800
v -0.0300 0.1850 0.6700
v -0.3400 0.1850 0.6700
vt 0.0 0.0
vt 1.0 0.0
vt 1.0 1.0
vt 0.0 1.0
f 41/41 42/42 43/43 44/44
o bellows_knee_L_inner
g bellows_knee_L_inner
usemtl MAT_Accent
v -0.3200 0.2050 0.4200
v -0.0500 0.2050 0.4200
v -0.0500 0.2050 0.5600
v -0.3200 0.2050 0.5600
vt 0.0 0.0
vt 1.0 0.0
vt 1.0 1.0
vt 0.0 1.0
f 45/45 46/46 47/47 48/48
o bellows_knee_R_outer
g bellows_knee_R_outer
usemtl MAT_Hero
v 0.0300 0.1850 0.4800
v 0.3400 0.1850 0.4800
v 0.3400 0.1850 0.6700
v 0.0300 0.1850 0.6700
vt 0.0 0.0
vt 1.0 0.0
vt 1.0 1.0
vt 0.0 1.0
f 49/49 50/50 51/51 52/52
o bellows_knee_R_inner
g bellows_knee_R_inner
usemtl MAT_Accent
v 0.0500 0.2050 0.4200
v 0.3200 0.2050 0.4200
v 0.3200 0.2050 0.5600
v 0.0500 0.2050 0.5600
vt 0.0 0.0
vt 1.0 0.0
vt 1.0 1.0
vt 0.0 1.0
f 53/53 54/54 55/55 56/56
o knee_facing_L
g knee_facing_L
usemtl MAT_Hero
v -0.3300 -0.1500 0.4600
v -0.0400 -0.1500 0.4600
v -0.0400 -0.1500 0.6400
v -0.3300 -0.1500 0.6400
vt 0.0 0.0
vt 1.0 0.0
vt 1.0 1.0
vt 0.0 1.0
f 57/57 58/58 59/59 60/60
o knee_facing_R
g knee_facing_R
usemtl MAT_Hero
v 0.0400 -0.1500 0.4600
v 0.3300 -0.1500 0.4600
v 0.3300 -0.1500 0.6400
v 0.0400 -0.1500 0.6400
vt 0.0 0.0
vt 1.0 0.0
vt 1.0 1.0
vt 0.0 1.0
f 61/61 62/62 63/63 64/64
