# Twistback Bridge Blouse Set structural prototype
mtllib twistback-bridge-blouse-set-prototype.mtl
v -0.5500 0.0800 1.2000
v -0.0500 0.0800 1.2000
v -0.0500 0.0800 1.9000
v -0.5500 0.0800 1.9000
v 0.0500 0.0800 1.2000
v 0.5500 0.0800 1.2000
v 0.5500 0.0800 1.9000
v 0.0500 0.0800 1.9000
v -0.5000 -0.0800 1.1800
v 0.5000 -0.0800 1.1800
v 0.5000 -0.0800 1.8800
v -0.5000 -0.0800 1.8800
v -0.9500 0.0800 1.1800
v -0.5800 0.0800 1.1800
v -0.5800 0.0800 1.8500
v -0.9500 0.0800 1.8500
v 0.5800 0.0800 1.1800
v 0.9500 0.0800 1.1800
v 0.9500 0.0800 1.8500
v 0.5800 0.0800 1.8500
v -0.3000 0.0800 1.2500
v 0.3000 0.0800 1.2500
v 0.3000 0.0800 1.7800
v -0.3000 0.0800 1.7800
v -0.4800 0.0800 0.0500
v -0.0400 0.0800 0.0500
v -0.0400 0.0800 1.1500
v -0.4800 0.0800 1.1500
v 0.0400 0.0800 0.0500
v 0.4800 0.0800 0.0500
v 0.4800 0.0800 1.1500
v 0.0400 0.0800 1.1500
v -0.4600 -0.0800 0.0200
v -0.0200 -0.0800 0.0200
v -0.0200 -0.0800 1.1200
v -0.4600 -0.0800 1.1200
v 0.0200 -0.0800 0.0200
v 0.4600 -0.0800 0.0200
v 0.4600 -0.0800 1.1200
v 0.0200 -0.0800 1.1200
v -0.5000 0.0800 1.0500
v 0.5000 0.0800 1.0500
v 0.5000 0.0800 1.1800
v -0.5000 0.0800 1.1800
v -0.4800 -0.0800 1.6600
v 0.4800 -0.0800 1.6600
v 0.4800 -0.0800 1.9000
v -0.4800 -0.0800 1.9000
v -0.4400 -0.0800 1.5400
v 0.4400 -0.0800 1.5400
v 0.4400 -0.0800 1.7300
v -0.4400 -0.0800 1.7300
v -0.3800 -0.0800 1.4900
v 0.3800 -0.0800 1.4900
v 0.3800 -0.0800 1.6800
v -0.3800 -0.0800 1.6800
v -0.5000 -0.0800 1.5200
v -0.3400 -0.0800 1.5200
v -0.3400 -0.0800 1.7200
v -0.5000 -0.0800 1.7200
v 0.3400 -0.0800 1.5200
v 0.5000 -0.0800 1.5200
v 0.5000 -0.0800 1.7200
v 0.3400 -0.0800 1.7200
vt 0.0000 0.0000
vt 1.0000 0.0000
vt 1.0000 1.0000
vt 0.0000 1.0000
vt 0.0000 0.0000
vt 1.0000 0.0000
vt 1.0000 1.0000
vt 0.0000 1.0000
vt 0.0000 0.0000
vt 1.0000 0.0000
vt 1.0000 1.0000
vt 0.0000 1.0000
vt 0.0000 0.0000
vt 1.0000 0.0000
vt 1.0000 1.0000
vt 0.0000 1.0000
vt 0.0000 0.0000
vt 1.0000 0.0000
vt 1.0000 1.0000
vt 0.0000 1.0000
vt 0.0000 0.0000
vt 1.0000 0.0000
vt 1.0000 1.0000
vt 0.0000 1.0000
vt 0.0000 0.0000
vt 1.0000 0.0000
vt 1.0000 1.0000
vt 0.0000 1.0000
vt 0.0000 0.0000
vt 1.0000 0.0000
vt 1.0000 1.0000
vt 0.0000 1.0000
vt 0.0000 0.0000
vt 1.0000 0.0000
vt 1.0000 1.0000
vt 0.0000 1.0000
vt 0.0000 0.0000
vt 1.0000 0.0000
vt 1.0000 1.0000
vt 0.0000 1.0000
vt 0.0000 0.0000
vt 1.0000 0.0000
vt 1.0000 1.0000
vt 0.0000 1.0000
vt 0.0000 0.0000
vt 1.0000 0.0000
vt 1.0000 1.0000
vt 0.0000 1.0000
vt 0.0000 0.0000
vt 1.0000 0.0000
vt 1.0000 1.0000
vt 0.0000 1.0000
vt 0.0000 0.0000
vt 1.0000 0.0000
vt 1.0000 1.0000
vt 0.0000 1.0000
vt 0.0000 0.0000
vt 1.0000 0.0000
vt 1.0000 1.0000
vt 0.0000 1.0000
vt 0.0000 0.0000
vt 1.0000 0.0000
vt 1.0000 1.0000
vt 0.0000 1.0000
g blouse_front_L
usemtl fabric_outer
f 1/1 2/2 3/3 4/4
g blouse_front_R
usemtl fabric_outer
f 5/5 6/6 7/7 8/8
g blouse_back
usemtl fabric_outer
f 9/9 10/10 11/11 12/12
g sleeve_L
usemtl fabric_outer
f 13/13 14/14 15/15 16/16
g sleeve_R
usemtl fabric_outer
f 17/17 18/18 19/19 20/20
g inner_front
usemtl fabric_inner
f 21/21 22/22 23/23 24/24
g trouser_front_L
usemtl fabric_bottom
f 25/25 26/26 27/27 28/28
g trouser_front_R
usemtl fabric_bottom
f 29/29 30/30 31/31 32/32
g trouser_back_L
usemtl fabric_bottom
f 33/33 34/34 35/35 36/36
g trouser_back_R
usemtl fabric_bottom
f 37/37 38/38 39/39 40/40
g waistband
usemtl fabric_bottom
f 41/41 42/42 43/43 44/44
g back_yoke
usemtl fabric_outer
f 45/45 46/46 47/47 48/48
g twist_bridge_outer
usemtl accent
f 49/49 50/50 51/51 52/52
g twist_bridge_inner
usemtl accent
f 53/53 54/54 55/55 56/56
g bridge_facing_L
usemtl accent
f 57/57 58/58 59/59 60/60
g bridge_facing_R
usemtl accent
f 61/61 62/62 63/63 64/64
