mtllib structural.mtl
o VenturiWaistJacketSet
g jacket_front_L
usemtl MAT_Shell
v -0.3600 -0.1600 1.0500
v -0.0200 -0.1600 1.0500
v -0.0200 -0.1600 1.5500
v -0.3600 -0.1600 1.5500
vt 0.0000 0.0000
vt 1.0000 0.0000
vt 1.0000 1.0000
vt 0.0000 1.0000
f 1/1 2/2 3/3 4/4
g jacket_front_R
usemtl MAT_Shell
v 0.0200 -0.1600 1.0500
v 0.3600 -0.1600 1.0500
v 0.3600 -0.1600 1.5500
v 0.0200 -0.1600 1.5500
vt 0.0000 0.0000
vt 1.0000 0.0000
vt 1.0000 1.0000
vt 0.0000 1.0000
f 5/5 6/6 7/7 8/8
g jacket_back
usemtl MAT_Shell
v -0.3600 0.1400 1.0500
v 0.3600 0.1400 1.0500
v 0.3600 0.1400 1.5500
v -0.3600 0.1400 1.5500
vt 0.0000 0.0000
vt 1.0000 0.0000
vt 1.0000 1.0000
vt 0.0000 1.0000
f 9/9 10/10 11/11 12/12
g sleeve_L
usemtl MAT_Shell
v -0.6200 -0.0200 1.0000
v -0.3600 -0.0200 1.0000
v -0.3600 -0.0200 1.4800
v -0.6200 -0.0200 1.4800
vt 0.0000 0.0000
vt 1.0000 0.0000
vt 1.0000 1.0000
vt 0.0000 1.0000
f 13/13 14/14 15/15 16/16
g sleeve_R
usemtl MAT_Shell
v 0.3600 -0.0200 1.0000
v 0.6200 -0.0200 1.0000
v 0.6200 -0.0200 1.4800
v 0.3600 -0.0200 1.4800
vt 0.0000 0.0000
vt 1.0000 0.0000
vt 1.0000 1.0000
vt 0.0000 1.0000
f 17/17 18/18 19/19 20/20
g inner_front
usemtl MAT_Inner
v -0.2800 -0.1800 1.1000
v 0.2800 -0.1800 1.1000
v 0.2800 -0.1800 1.4800
v -0.2800 -0.1800 1.4800
vt 0.0000 0.0000
vt 1.0000 0.0000
vt 1.0000 1.0000
vt 0.0000 1.0000
f 21/21 22/22 23/23 24/24
g inner_back
usemtl MAT_Inner
v -0.2800 0.1600 1.1000
v 0.2800 0.1600 1.1000
v 0.2800 0.1600 1.4800
v -0.2800 0.1600 1.4800
vt 0.0000 0.0000
vt 1.0000 0.0000
vt 1.0000 1.0000
vt 0.0000 1.0000
f 25/25 26/26 27/27 28/28
g trouser_L
usemtl MAT_Bottoms
v -0.2800 -0.1000 0.1200
v -0.0200 -0.1000 0.1200
v -0.0200 -0.1000 1.0600
v -0.2800 -0.1000 1.0600
vt 0.0000 0.0000
vt 1.0000 0.0000
vt 1.0000 1.0000
vt 0.0000 1.0000
f 29/29 30/30 31/31 32/32
g trouser_R
usemtl MAT_Bottoms
v 0.0200 -0.1000 0.1200
v 0.2800 -0.1000 0.1200
v 0.2800 -0.1000 1.0600
v 0.0200 -0.1000 1.0600
vt 0.0000 0.0000
vt 1.0000 0.0000
vt 1.0000 1.0000
vt 0.0000 1.0000
f 33/33 34/34 35/35 36/36
g waistband
usemtl MAT_Bottoms
v -0.3000 -0.1200 0.9800
v 0.3000 -0.1200 0.9800
v 0.3000 -0.1200 1.0800
v -0.3000 -0.1200 1.0800
vt 0.0000 0.0000
vt 1.0000 0.0000
vt 1.0000 1.0000
vt 0.0000 1.0000
f 37/37 38/38 39/39 40/40
g back_yoke
usemtl MAT_Accent
v -0.3000 0.1600 1.4000
v 0.3000 0.1600 1.4000
v 0.3000 0.1600 1.5200
v -0.3000 0.1600 1.5200
vt 0.0000 0.0000
vt 1.0000 0.0000
vt 1.0000 1.0000
vt 0.0000 1.0000
f 41/41 42/42 43/43 44/44
g venturi_channel_L
usemtl MAT_Hero
v -0.5000 -0.2000 1.3500
v -0.3400 -0.2000 1.3000
v -0.3000 -0.2000 1.1100
v -0.5200 -0.2000 0.9800
vt 0.0000 0.0000
vt 1.0000 0.0000
vt 1.0000 1.0000
vt 0.0000 1.0000
f 45/45 46/46 47/47 48/48
g venturi_channel_R
usemtl MAT_Hero
v 0.3400 -0.2000 1.3000
v 0.5000 -0.2000 1.3500
v 0.5200 -0.2000 0.9800
v 0.3000 -0.2000 1.1100
vt 0.0000 0.0000
vt 1.0000 0.0000
vt 1.0000 1.0000
vt 0.0000 1.0000
f 49/49 50/50 51/51 52/52
g venturi_facing_L
usemtl MAT_Accent
v -0.4800 -0.2050 1.0000
v -0.3600 -0.2050 1.0000
v -0.3600 -0.2050 1.3100
v -0.4800 -0.2050 1.3100
vt 0.0000 0.0000
vt 1.0000 0.0000
vt 1.0000 1.0000
vt 0.0000 1.0000
f 53/53 54/54 55/55 56/56
g venturi_facing_R
usemtl MAT_Accent
v 0.3600 -0.2050 1.0000
v 0.4800 -0.2050 1.0000
v 0.4800 -0.2050 1.3100
v 0.3600 -0.2050 1.3100
vt 0.0000 0.0000
vt 1.0000 0.0000
vt 1.0000 1.0000
vt 0.0000 1.0000
f 57/57 58/58 59/59 60/60
