mtllib seamstep-coach-prototype.mtl
o SeamstepCoach_Prototype
v -1.2500 1.1000 0.0000
v -0.7700 1.1000 0.0000
v -0.7700 0.5400 0.0000
v -1.2500 0.5400 0.0000
v -0.6300 1.1000 0.0000
v -0.1500 1.1000 0.0000
v -0.1500 0.5400 0.0000
v -0.6300 0.5400 0.0000
v -0.0100 1.1000 0.0000
v 0.4700 1.1000 0.0000
v 0.4700 0.5400 0.0000
v -0.0100 0.5400 0.0000
v 0.6100 1.1000 0.0000
v 1.0900 1.1000 0.0000
v 1.0900 0.5400 0.0000
v 0.6100 0.5400 0.0000
v 1.2300 1.1000 0.0000
v 1.7100 1.1000 0.0000
v 1.7100 0.5400 0.0000
v 1.2300 0.5400 0.0000
v -1.2500 0.3800 0.0000
v -0.7700 0.3800 0.0000
v -0.7700 -0.1800 0.0000
v -1.2500 -0.1800 0.0000
v -0.6300 0.3800 0.0000
v -0.1500 0.3800 0.0000
v -0.1500 -0.1800 0.0000
v -0.6300 -0.1800 0.0000
v -0.0100 0.3800 0.0000
v 0.4700 0.3800 0.0000
v 0.4700 -0.1800 0.0000
v -0.0100 -0.1800 0.0000
v 0.6100 0.3800 0.0000
v 1.0900 0.3800 0.0000
v 1.0900 -0.1800 0.0000
v 0.6100 -0.1800 0.0000
v 1.2300 0.3800 0.0000
v 1.5900 0.3800 0.0000
v 1.5300 0.1800 0.0000
v 1.2500 0.1800 0.0000
v -1.2500 -0.3400 0.0000
v -0.8900 -0.3400 0.0000
v -0.9500 -0.5400 0.0000
v -1.2300 -0.5400 0.0000
v -0.6300 -0.3400 0.0000
v -0.2700 -0.3400 0.0000
v -0.3300 -0.5400 0.0000
v -0.6100 -0.5400 0.0000
v -0.0100 -0.3400 0.0000
v 0.3500 -0.3400 0.0000
v 0.2900 -0.5400 0.0000
v 0.0100 -0.5400 0.0000
v 0.6100 -0.3400 0.0000
v 0.9700 -0.3400 0.0000
v 0.9100 -0.5400 0.0000
v 0.6300 -0.5400 0.0000
v 1.2300 -0.3400 0.0000
v 1.5900 -0.3400 0.0000
v 1.5300 -0.5400 0.0000
v 1.2500 -0.5400 0.0000
vt 0.0500 0.9500
vt 0.4500 0.9500
vt 0.4500 0.5500
vt 0.0500 0.5500
vt 0.0500 0.9500
vt 0.4500 0.9500
vt 0.4500 0.5500
vt 0.0500 0.5500
vt 0.0500 0.9500
vt 0.4500 0.9500
vt 0.4500 0.5500
vt 0.0500 0.5500
vt 0.0500 0.9500
vt 0.4500 0.9500
vt 0.4500 0.5500
vt 0.0500 0.5500
vt 0.0500 0.9500
vt 0.4500 0.9500
vt 0.4500 0.5500
vt 0.0500 0.5500
vt 0.0500 0.9500
vt 0.4500 0.9500
vt 0.4500 0.5500
vt 0.0500 0.5500
vt 0.0500 0.9500
vt 0.4500 0.9500
vt 0.4500 0.5500
vt 0.0500 0.5500
vt 0.0500 0.9500
vt 0.4500 0.9500
vt 0.4500 0.5500
vt 0.0500 0.5500
vt 0.0500 0.9500
vt 0.4500 0.9500
vt 0.4500 0.5500
vt 0.0500 0.5500
vt 0.0500 0.9500
vt 0.4500 0.9500
vt 0.4500 0.5500
vt 0.0500 0.5500
vt 0.0500 0.9500
vt 0.4500 0.9500
vt 0.4500 0.5500
vt 0.0500 0.5500
vt 0.0500 0.9500
vt 0.4500 0.9500
vt 0.4500 0.5500
vt 0.0500 0.5500
vt 0.0500 0.9500
vt 0.4500 0.9500
vt 0.4500 0.5500
vt 0.0500 0.5500
vt 0.0500 0.9500
vt 0.4500 0.9500
vt 0.4500 0.5500
vt 0.0500 0.5500
vt 0.0500 0.9500
vt 0.4500 0.9500
vt 0.4500 0.5500
vt 0.0500 0.5500
g jacket_front_L
usemtl fabric_outer
f 1/1 2/2 3/3 4/4
g jacket_front_R
usemtl fabric_outer
f 5/5 6/6 7/7 8/8
g jacket_back
usemtl fabric_outer
f 9/9 10/10 11/11 12/12
g sleeve_L
usemtl fabric_outer
f 13/13 14/14 15/15 16/16
g sleeve_R
usemtl fabric_outer
f 17/17 18/18 19/19 20/20
g inner_top
usemtl fabric_inner
f 21/21 22/22 23/23 24/24
g short_front
usemtl fabric_bottom
f 25/25 26/26 27/27 28/28
g short_back
usemtl fabric_bottom
f 29/29 30/30 31/31 32/32
g waistband
usemtl fabric_bottom
f 33/33 34/34 35/35 36/36
g step_L_A
usemtl accent
f 37/37 38/38 39/39 40/40
g step_L_B
usemtl accent
f 41/41 42/42 43/43 44/44
g step_L_C
usemtl accent
f 45/45 46/46 47/47 48/48
g step_R_A
usemtl accent
f 49/49 50/50 51/51 52/52
g step_R_B
usemtl accent
f 53/53 54/54 55/55 56/56
g step_R_C
usemtl accent
f 57/57 58/58 59/59 60/60
