mtllib arc-tabard-prototype.mtl
o jacket_front_L
usemtl MAT_Arc_Jacket
v -0.42 1.25 0.05
v -0.04 1.25 0.05
v -0.06 0.72 0.07
v -0.46 0.72 0.07
vt 0 1
vt .4 1
vt .4 .5
vt 0 .5
f 1/1 2/2 3/3 4/4
o jacket_front_R
usemtl MAT_Arc_Jacket
v 0.04 1.25 0.05
v 0.42 1.25 0.05
v 0.46 0.72 0.07
v 0.06 0.72 0.07
vt .6 1
vt 1 1
vt 1 .5
vt .6 .5
f 5/5 6/6 7/7 8/8
o inner_front
usemtl MAT_Arc_Inner
v -0.22 1.18 0.02
v 0.22 1.18 0.02
v 0.20 0.70 0.03
v -0.20 0.70 0.03
vt 0 1
vt 1 1
vt 1 0
vt 0 0
f 9/9 10/10 11/11 12/12
o skirt_front
usemtl MAT_Arc_Skirt
v -0.43 0.70 0.02
v 0.43 0.70 0.02
v 0.48 0.08 0.04
v -0.48 0.08 0.04
vt 0 1
vt 1 1
vt 1 0
vt 0 0
f 13/13 14/14 15/15 16/16
o arc_frame_front
usemtl MAT_Arc_Tabard
v -0.39 0.69 0.09
v -0.18 0.69 0.10
v 0.00 0.47 0.12
v 0.18 0.69 0.10
v 0.39 0.69 0.09
v 0.31 0.34 0.13
v 0.00 0.20 0.14
v -0.31 0.34 0.13
vt 0 1
vt .25 1
vt .5 .62
vt .75 1
vt 1 1
vt .85 .2
vt .5 0
vt .15 .2
f 17/17 18/18 19/19 20/20 21/21 22/22 23/23 24/24
o overlap_leaf_R
usemtl MAT_Arc_Accent
v 0.20 0.65 0.15
v 0.43 0.58 0.16
v 0.38 0.25 0.17
v 0.13 0.34 0.16
vt 0 1
vt 1 1
vt 1 0
vt 0 0
f 25/25 26/26 27/27 28/28
