mtllib structural.mtl
o OrbitCutoutJacketSet
v -0.020000 -0.030000 1.050000
v 0.220000 -0.030000 1.050000
v 0.200000 -0.020000 1.380000
v -0.020000 -0.020000 1.380000
v -0.380000 -0.030000 1.050000
v -0.020000 -0.030000 1.050000
v -0.020000 -0.020000 1.120000
v -0.380000 -0.020000 1.120000
v -0.380000 -0.030000 1.300000
v -0.020000 -0.030000 1.300000
v -0.020000 -0.020000 1.380000
v -0.380000 -0.020000 1.380000
v -0.380000 -0.030000 1.120000
v -0.270000 -0.030000 1.120000
v -0.270000 -0.020000 1.300000
v -0.380000 -0.020000 1.300000
v -0.070000 -0.030000 1.120000
v -0.020000 -0.030000 1.120000
v -0.020000 -0.020000 1.300000
v -0.070000 -0.020000 1.300000
v -0.360000 0.050000 1.050000
v 0.220000 0.050000 1.050000
v 0.200000 0.060000 1.380000
v -0.340000 0.060000 1.380000
v -0.500000 0.000000 1.080000
v -0.380000 0.000000 1.080000
v -0.340000 0.000000 1.340000
v -0.460000 0.000000 1.320000
v 0.220000 0.000000 1.080000
v 0.340000 0.000000 1.080000
v 0.380000 0.000000 1.320000
v 0.260000 0.000000 1.340000
v -0.220000 -0.040000 1.080000
v 0.120000 -0.040000 1.080000
v 0.120000 -0.040000 1.320000
v -0.220000 -0.040000 1.320000
v -0.220000 0.070000 1.080000
v 0.120000 0.070000 1.080000
v 0.120000 0.070000 1.320000
v -0.220000 0.070000 1.320000
v -0.240000 0.000000 0.480000
v -0.030000 0.000000 0.480000
v -0.020000 0.000000 1.040000
v -0.230000 0.000000 1.040000
v 0.010000 0.000000 0.480000
v 0.200000 0.000000 0.480000
v 0.190000 0.000000 1.040000
v 0.020000 0.000000 1.040000
v -0.240000 -0.010000 1.020000
v 0.200000 -0.010000 1.020000
v 0.190000 -0.010000 1.080000
v -0.230000 -0.010000 1.080000
v -0.300000 0.070000 1.300000
v 0.160000 0.070000 1.300000
v 0.100000 0.080000 1.380000
v -0.240000 0.080000 1.380000
v -0.095000 -0.050000 1.180000
v -0.065000 -0.050000 1.180000
v -0.095754 -0.050000 1.254246
v -0.116967 -0.050000 1.233033
v -0.116967 -0.050000 1.233033
v -0.095754 -0.050000 1.254246
v -0.170000 -0.050000 1.285000
v -0.170000 -0.050000 1.255000
v -0.170000 -0.050000 1.255000
v -0.170000 -0.050000 1.285000
v -0.244246 -0.050000 1.254246
v -0.223033 -0.050000 1.233033
v -0.223033 -0.050000 1.233033
v -0.244246 -0.050000 1.254246
v -0.275000 -0.050000 1.180000
v -0.245000 -0.050000 1.180000
v -0.245000 -0.050000 1.180000
v -0.275000 -0.050000 1.180000
v -0.244246 -0.050000 1.105754
v -0.223033 -0.050000 1.126967
v -0.223033 -0.050000 1.126967
v -0.244246 -0.050000 1.105754
v -0.170000 -0.050000 1.075000
v -0.170000 -0.050000 1.105000
v -0.170000 -0.050000 1.105000
v -0.170000 -0.050000 1.075000
v -0.095754 -0.050000 1.105754
v -0.116967 -0.050000 1.126967
v -0.116967 -0.050000 1.126967
v -0.095754 -0.050000 1.105754
v -0.065000 -0.050000 1.180000
v -0.095000 -0.050000 1.180000
v -0.120000 -0.052000 1.180000
v -0.100000 -0.052000 1.180000
v -0.120503 -0.052000 1.229497
v -0.134645 -0.052000 1.215355
v -0.134645 -0.052000 1.215355
v -0.120503 -0.052000 1.229497
v -0.170000 -0.052000 1.250000
v -0.170000 -0.052000 1.230000
v -0.170000 -0.052000 1.230000
v -0.170000 -0.052000 1.250000
v -0.219497 -0.052000 1.229497
v -0.205355 -0.052000 1.215355
v -0.205355 -0.052000 1.215355
v -0.219497 -0.052000 1.229497
v -0.240000 -0.052000 1.180000
v -0.220000 -0.052000 1.180000
v -0.220000 -0.052000 1.180000
v -0.240000 -0.052000 1.180000
v -0.219497 -0.052000 1.130503
v -0.205355 -0.052000 1.144645
v -0.205355 -0.052000 1.144645
v -0.219497 -0.052000 1.130503
v -0.170000 -0.052000 1.110000
v -0.170000 -0.052000 1.130000
v -0.170000 -0.052000 1.130000
v -0.170000 -0.052000 1.110000
v -0.120503 -0.052000 1.130503
v -0.134645 -0.052000 1.144645
v -0.134645 -0.052000 1.144645
v -0.120503 -0.052000 1.130503
v -0.100000 -0.052000 1.180000
v -0.120000 -0.052000 1.180000
v -0.280000 -0.055000 1.110000
v -0.060000 -0.055000 1.110000
v -0.060000 -0.055000 1.130000
v -0.280000 -0.055000 1.130000
v -0.280000 -0.055000 1.270000
v -0.060000 -0.055000 1.270000
v -0.060000 -0.055000 1.290000
v -0.280000 -0.055000 1.290000
vt 0.480000 0.550000
vt 0.720000 0.550000
vt 0.700000 0.880000
vt 0.480000 0.880000
vt 0.120000 0.550000
vt 0.480000 0.550000
vt 0.480000 0.620000
vt 0.120000 0.620000
vt 0.120000 0.800000
vt 0.480000 0.800000
vt 0.480000 0.880000
vt 0.120000 0.880000
vt 0.120000 0.620000
vt 0.230000 0.620000
vt 0.230000 0.800000
vt 0.120000 0.800000
vt 0.430000 0.620000
vt 0.480000 0.620000
vt 0.480000 0.800000
vt 0.430000 0.800000
vt 0.140000 0.550000
vt 0.720000 0.550000
vt 0.700000 0.880000
vt 0.160000 0.880000
vt 0.000000 0.580000
vt 0.120000 0.580000
vt 0.160000 0.840000
vt 0.040000 0.820000
vt 0.720000 0.580000
vt 0.840000 0.580000
vt 0.880000 0.820000
vt 0.760000 0.840000
vt 0.280000 0.580000
vt 0.620000 0.580000
vt 0.620000 0.820000
vt 0.280000 0.820000
vt 0.280000 0.580000
vt 0.620000 0.580000
vt 0.620000 0.820000
vt 0.280000 0.820000
vt 0.260000 0.980000
vt 0.470000 0.980000
vt 0.480000 0.540000
vt 0.270000 0.540000
vt 0.510000 0.980000
vt 0.700000 0.980000
vt 0.690000 0.540000
vt 0.520000 0.540000
vt 0.260000 0.520000
vt 0.700000 0.520000
vt 0.690000 0.580000
vt 0.270000 0.580000
vt 0.200000 0.800000
vt 0.660000 0.800000
vt 0.600000 0.880000
vt 0.260000 0.880000
vt 0.405000 0.680000
vt 0.435000 0.680000
vt 0.404246 0.754246
vt 0.383033 0.733033
vt 0.383033 0.733033
vt 0.404246 0.754246
vt 0.330000 0.785000
vt 0.330000 0.755000
vt 0.330000 0.755000
vt 0.330000 0.785000
vt 0.255754 0.754246
vt 0.276967 0.733033
vt 0.276967 0.733033
vt 0.255754 0.754246
vt 0.225000 0.680000
vt 0.255000 0.680000
vt 0.255000 0.680000
vt 0.225000 0.680000
vt 0.255754 0.605754
vt 0.276967 0.626967
vt 0.276967 0.626967
vt 0.255754 0.605754
vt 0.330000 0.575000
vt 0.330000 0.605000
vt 0.330000 0.605000
vt 0.330000 0.575000
vt 0.404246 0.605754
vt 0.383033 0.626967
vt 0.383033 0.626967
vt 0.404246 0.605754
vt 0.435000 0.680000
vt 0.405000 0.680000
vt 0.380000 0.680000
vt 0.400000 0.680000
vt 0.379497 0.729497
vt 0.365355 0.715355
vt 0.365355 0.715355
vt 0.379497 0.729497
vt 0.330000 0.750000
vt 0.330000 0.730000
vt 0.330000 0.730000
vt 0.330000 0.750000
vt 0.280503 0.729497
vt 0.294645 0.715355
vt 0.294645 0.715355
vt 0.280503 0.729497
vt 0.260000 0.680000
vt 0.280000 0.680000
vt 0.280000 0.680000
vt 0.260000 0.680000
vt 0.280503 0.630503
vt 0.294645 0.644645
vt 0.294645 0.644645
vt 0.280503 0.630503
vt 0.330000 0.610000
vt 0.330000 0.630000
vt 0.330000 0.630000
vt 0.330000 0.610000
vt 0.379497 0.630503
vt 0.365355 0.644645
vt 0.365355 0.644645
vt 0.379497 0.630503
vt 0.400000 0.680000
vt 0.380000 0.680000
vt 0.220000 0.610000
vt 0.440000 0.610000
vt 0.440000 0.630000
vt 0.220000 0.630000
vt 0.220000 0.770000
vt 0.440000 0.770000
vt 0.440000 0.790000
vt 0.220000 0.790000
g jacket_front_R
usemtl MAT_Shell
f 1/1 2/2 3/3 4/4
g jacket_front_L
usemtl MAT_Shell
f 5/5 6/6 7/7 8/8
usemtl MAT_Shell
f 9/9 10/10 11/11 12/12
usemtl MAT_Shell
f 13/13 14/14 15/15 16/16
usemtl MAT_Shell
f 17/17 18/18 19/19 20/20
g jacket_back
usemtl MAT_Shell
f 21/21 22/22 23/23 24/24
g sleeve_L
usemtl MAT_Shell
f 25/25 26/26 27/27 28/28
g sleeve_R
usemtl MAT_Shell
f 29/29 30/30 31/31 32/32
g inner_front
usemtl MAT_Inner
f 33/33 34/34 35/35 36/36
g inner_back
usemtl MAT_Inner
f 37/37 38/38 39/39 40/40
g trouser_L
usemtl MAT_Bottoms
f 41/41 42/42 43/43 44/44
g trouser_R
usemtl MAT_Bottoms
f 45/45 46/46 47/47 48/48
g waistband
usemtl MAT_Bottoms
f 49/49 50/50 51/51 52/52
g back_yoke
usemtl MAT_Accent
f 53/53 54/54 55/55 56/56
g orbit_frame_outer
usemtl MAT_Hero
f 57/57 58/58 59/59 60/60
usemtl MAT_Hero
f 61/61 62/62 63/63 64/64
usemtl MAT_Hero
f 65/65 66/66 67/67 68/68
usemtl MAT_Hero
f 69/69 70/70 71/71 72/72
usemtl MAT_Hero
f 73/73 74/74 75/75 76/76
usemtl MAT_Hero
f 77/77 78/78 79/79 80/80
usemtl MAT_Hero
f 81/81 82/82 83/83 84/84
usemtl MAT_Hero
f 85/85 86/86 87/87 88/88
g orbit_frame_inner
usemtl MAT_Hero
f 89/89 90/90 91/91 92/92
usemtl MAT_Hero
f 93/93 94/94 95/95 96/96
usemtl MAT_Hero
f 97/97 98/98 99/99 100/100
usemtl MAT_Hero
f 101/101 102/102 103/103 104/104
usemtl MAT_Hero
f 105/105 106/106 107/107 108/108
usemtl MAT_Hero
f 109/109 110/110 111/111 112/112
usemtl MAT_Hero
f 113/113 114/114 115/115 116/116
usemtl MAT_Hero
f 117/117 118/118 119/119 120/120
g cutout_facing_front
usemtl MAT_Accent
f 121/121 122/122 123/123 124/124
g cutout_facing_back
usemtl MAT_Accent
f 125/125 126/126 127/127 128/128
