mtllib shutter-pleat-blouse-set.mtl
v -0.3200 1.0500 0.0400
v 0.3200 1.0500 0.0400
v 0.3200 1.5500 0.0400
v -0.3200 1.5500 0.0400
v -0.3200 1.0500 -0.0400
v 0.3200 1.0500 -0.0400
v 0.3200 1.5500 -0.0400
v -0.3200 1.5500 -0.0400
v -0.5800 1.0300 0.0000
v -0.3400 1.0300 0.0000
v -0.3400 1.4800 0.0000
v -0.5800 1.4800 0.0000
v 0.3400 1.0300 0.0000
v 0.5800 1.0300 0.0000
v 0.5800 1.4800 0.0000
v 0.3400 1.4800 0.0000
v -0.3000 0.0500 0.0200
v -0.0300 0.0500 0.0200
v -0.0300 1.0400 0.0200
v -0.3000 1.0400 0.0200
v 0.0300 0.0500 0.0200
v 0.3000 0.0500 0.0200
v 0.3000 1.0400 0.0200
v 0.0300 1.0400 0.0200
v -0.6000 1.0200 0.0600
v -0.4600 1.0200 0.0600
v -0.4600 1.0750 0.0600
v -0.6000 1.0750 0.0600
v -0.6100 1.0800 0.0700
v -0.4500 1.0800 0.0700
v -0.4500 1.1350 0.0700
v -0.6100 1.1350 0.0700
v -0.6200 1.1400 0.0800
v -0.4400 1.1400 0.0800
v -0.4400 1.1950 0.0800
v -0.6200 1.1950 0.0800
v 0.4600 1.0200 0.0600
v 0.6000 1.0200 0.0600
v 0.6000 1.0750 0.0600
v 0.4600 1.0750 0.0600
v 0.4500 1.0800 0.0700
v 0.6100 1.0800 0.0700
v 0.6100 1.1350 0.0700
v 0.4500 1.1350 0.0700
v 0.4400 1.1400 0.0800
v 0.6200 1.1400 0.0800
v 0.6200 1.1950 0.0800
v 0.4400 1.1950 0.0800
v -0.3400 0.0800 0.0600
v -0.2000 0.0800 0.0600
v -0.2000 0.1350 0.0600
v -0.3400 0.1350 0.0600
v -0.3500 0.1400 0.0700
v -0.1900 0.1400 0.0700
v -0.1900 0.1950 0.0700
v -0.3500 0.1950 0.0700
v -0.3600 0.2000 0.0800
v -0.1800 0.2000 0.0800
v -0.1800 0.2550 0.0800
v -0.3600 0.2550 0.0800
v 0.2000 0.0800 0.0600
v 0.3400 0.0800 0.0600
v 0.3400 0.1350 0.0600
v 0.2000 0.1350 0.0600
v 0.1900 0.1400 0.0700
v 0.3500 0.1400 0.0700
v 0.3500 0.1950 0.0700
v 0.1900 0.1950 0.0700
v 0.1800 0.2000 0.0800
v 0.3600 0.2000 0.0800
v 0.3600 0.2550 0.0800
v 0.1800 0.2550 0.0800
vt 0 0
vt 1 0
vt 1 1
vt 0 1
vt 0 0
vt 1 0
vt 1 1
vt 0 1
vt 0 0
vt 1 0
vt 1 1
vt 0 1
vt 0 0
vt 1 0
vt 1 1
vt 0 1
vt 0 0
vt 1 0
vt 1 1
vt 0 1
vt 0 0
vt 1 0
vt 1 1
vt 0 1
vt 0 0
vt 1 0
vt 1 1
vt 0 1
vt 0 0
vt 1 0
vt 1 1
vt 0 1
vt 0 0
vt 1 0
vt 1 1
vt 0 1
vt 0 0
vt 1 0
vt 1 1
vt 0 1
vt 0 0
vt 1 0
vt 1 1
vt 0 1
vt 0 0
vt 1 0
vt 1 1
vt 0 1
vt 0 0
vt 1 0
vt 1 1
vt 0 1
vt 0 0
vt 1 0
vt 1 1
vt 0 1
vt 0 0
vt 1 0
vt 1 1
vt 0 1
vt 0 0
vt 1 0
vt 1 1
vt 0 1
vt 0 0
vt 1 0
vt 1 1
vt 0 1
vt 0 0
vt 1 0
vt 1 1
vt 0 1
g blouse_front
usemtl MAT_Blouse
f 1/1 2/2 3/3 4/4
g blouse_back
usemtl MAT_Blouse
f 5/5 6/6 7/7 8/8
g sleeve_L
usemtl MAT_Blouse
f 9/9 10/10 11/11 12/12
g sleeve_R
usemtl MAT_Blouse
f 13/13 14/14 15/15 16/16
g trouser_L
usemtl MAT_Trouser
f 17/17 18/18 19/19 20/20
g trouser_R
usemtl MAT_Trouser
f 21/21 22/22 23/23 24/24
g wrist_L_pleat_A
usemtl MAT_Accent
f 25/25 26/26 27/27 28/28
g wrist_L_pleat_B
usemtl MAT_Accent
f 29/29 30/30 31/31 32/32
g wrist_L_pleat_C
usemtl MAT_Accent
f 33/33 34/34 35/35 36/36
g wrist_R_pleat_A
usemtl MAT_Accent
f 37/37 38/38 39/39 40/40
g wrist_R_pleat_B
usemtl MAT_Accent
f 41/41 42/42 43/43 44/44
g wrist_R_pleat_C
usemtl MAT_Accent
f 45/45 46/46 47/47 48/48
g ankle_L_pleat_A
usemtl MAT_Accent
f 49/49 50/50 51/51 52/52
g ankle_L_pleat_B
usemtl MAT_Accent
f 53/53 54/54 55/55 56/56
g ankle_L_pleat_C
usemtl MAT_Accent
f 57/57 58/58 59/59 60/60
g ankle_R_pleat_A
usemtl MAT_Accent
f 61/61 62/62 63/63 64/64
g ankle_R_pleat_B
usemtl MAT_Accent
f 65/65 66/66 67/67 68/68
g ankle_R_pleat_C
usemtl MAT_Accent
f 69/69 70/70 71/71 72/72
