mtllib telescope-cuff-tailor-set.mtl
o TelescopeCuffTailorSet
v -0.280000 0.030000 1.280000
v -0.030000 0.030000 1.280000
v -0.030000 0.030000 1.620000
v -0.280000 0.030000 1.620000
vt 0.0 0.0
vt 1.0 0.0
vt 1.0 1.0
vt 0.0 1.0
g vest_front_L
usemtl MAT_Shell
f 1/1 2/2 3/3 4/4
v 0.030000 0.030000 1.280000
v 0.280000 0.030000 1.280000
v 0.280000 0.030000 1.620000
v 0.030000 0.030000 1.620000
vt 0.0 0.0
vt 1.0 0.0
vt 1.0 1.0
vt 0.0 1.0
g vest_front_R
usemtl MAT_Shell
f 5/5 6/6 7/7 8/8
v -0.280000 0.110000 1.280000
v 0.280000 0.110000 1.280000
v 0.280000 0.110000 1.620000
v -0.280000 0.110000 1.620000
vt 0.0 0.0
vt 1.0 0.0
vt 1.0 1.0
vt 0.0 1.0
g vest_back
usemtl MAT_Shell
f 9/9 10/10 11/11 12/12
v -0.600000 0.030000 1.150000
v -0.300000 0.030000 1.150000
v -0.300000 0.030000 1.500000
v -0.600000 0.030000 1.500000
vt 0.0 0.0
vt 1.0 0.0
vt 1.0 1.0
vt 0.0 1.0
g sleeve_L
usemtl MAT_Shell
f 13/13 14/14 15/15 16/16
v 0.300000 0.030000 1.150000
v 0.600000 0.030000 1.150000
v 0.600000 0.030000 1.500000
v 0.300000 0.030000 1.500000
vt 0.0 0.0
vt 1.0 0.0
vt 1.0 1.0
vt 0.0 1.0
g sleeve_R
usemtl MAT_Shell
f 17/17 18/18 19/19 20/20
v -0.200000 0.000000 1.180000
v 0.200000 0.000000 1.180000
v 0.200000 0.000000 1.520000
v -0.200000 0.000000 1.520000
vt 0.0 0.0
vt 1.0 0.0
vt 1.0 1.0
vt 0.0 1.0
g inner_front
usemtl MAT_Inner
f 21/21 22/22 23/23 24/24
v -0.200000 0.080000 1.180000
v 0.200000 0.080000 1.180000
v 0.200000 0.080000 1.520000
v -0.200000 0.080000 1.520000
vt 0.0 0.0
vt 1.0 0.0
vt 1.0 1.0
vt 0.0 1.0
g inner_back
usemtl MAT_Inner
f 25/25 26/26 27/27 28/28
v -0.250000 0.010000 0.150000
v -0.030000 0.010000 0.150000
v -0.030000 0.010000 1.150000
v -0.250000 0.010000 1.150000
vt 0.0 0.0
vt 1.0 0.0
vt 1.0 1.0
vt 0.0 1.0
g trouser_front_L
usemtl MAT_Bottoms
f 29/29 30/30 31/31 32/32
v 0.030000 0.010000 0.150000
v 0.250000 0.010000 0.150000
v 0.250000 0.010000 1.150000
v 0.030000 0.010000 1.150000
vt 0.0 0.0
vt 1.0 0.0
vt 1.0 1.0
vt 0.0 1.0
g trouser_front_R
usemtl MAT_Bottoms
f 33/33 34/34 35/35 36/36
v -0.250000 0.090000 0.150000
v -0.030000 0.090000 0.150000
v -0.030000 0.090000 1.150000
v -0.250000 0.090000 1.150000
vt 0.0 0.0
vt 1.0 0.0
vt 1.0 1.0
vt 0.0 1.0
g trouser_back_L
usemtl MAT_Bottoms
f 37/37 38/38 39/39 40/40
v 0.030000 0.090000 0.150000
v 0.250000 0.090000 0.150000
v 0.250000 0.090000 1.150000
v 0.030000 0.090000 1.150000
vt 0.0 0.0
vt 1.0 0.0
vt 1.0 1.0
vt 0.0 1.0
g trouser_back_R
usemtl MAT_Bottoms
f 41/41 42/42 43/43 44/44
v -0.270000 0.050000 1.080000
v 0.270000 0.050000 1.080000
v 0.270000 0.050000 1.180000
v -0.270000 0.050000 1.180000
vt 0.0 0.0
vt 1.0 0.0
vt 1.0 1.0
vt 0.0 1.0
g waistband
usemtl MAT_Bottoms
f 45/45 46/46 47/47 48/48
v -0.640000 0.020000 0.980000
v -0.380000 0.020000 0.980000
v -0.380000 0.020000 1.100000
v -0.640000 0.020000 1.100000
vt 0.0 0.0
vt 1.0 0.0
vt 1.0 1.0
vt 0.0 1.0
g cuff_L_A
usemtl MAT_Hero
f 49/49 50/50 51/51 52/52
v -0.660000 0.020000 0.860000
v -0.360000 0.020000 0.860000
v -0.360000 0.020000 0.980000
v -0.660000 0.020000 0.980000
vt 0.0 0.0
vt 1.0 0.0
vt 1.0 1.0
vt 0.0 1.0
g cuff_L_B
usemtl MAT_Accent
f 53/53 54/54 55/55 56/56
v -0.680000 0.020000 0.730000
v -0.340000 0.020000 0.730000
v -0.340000 0.020000 0.860000
v -0.680000 0.020000 0.860000
vt 0.0 0.0
vt 1.0 0.0
vt 1.0 1.0
vt 0.0 1.0
g cuff_L_C
usemtl MAT_Hero
f 57/57 58/58 59/59 60/60
v 0.380000 0.020000 0.980000
v 0.640000 0.020000 0.980000
v 0.640000 0.020000 1.100000
v 0.380000 0.020000 1.100000
vt 0.0 0.0
vt 1.0 0.0
vt 1.0 1.0
vt 0.0 1.0
g cuff_R_A
usemtl MAT_Hero
f 61/61 62/62 63/63 64/64
v 0.360000 0.020000 0.860000
v 0.660000 0.020000 0.860000
v 0.660000 0.020000 0.980000
v 0.360000 0.020000 0.980000
vt 0.0 0.0
vt 1.0 0.0
vt 1.0 1.0
vt 0.0 1.0
g cuff_R_B
usemtl MAT_Accent
f 65/65 66/66 67/67 68/68
v 0.340000 0.020000 0.730000
v 0.680000 0.020000 0.730000
v 0.680000 0.020000 0.860000
v 0.340000 0.020000 0.860000
vt 0.0 0.0
vt 1.0 0.0
vt 1.0 1.0
vt 0.0 1.0
g cuff_R_C
usemtl MAT_Hero
f 69/69 70/70 71/71 72/72
v -0.600000 0.080000 0.760000
v -0.400000 0.080000 0.760000
v -0.400000 0.080000 1.080000
v -0.600000 0.080000 1.080000
vt 0.0 0.0
vt 1.0 0.0
vt 1.0 1.0
vt 0.0 1.0
g cuff_facing_L
usemtl MAT_Hero
f 73/73 74/74 75/75 76/76
v 0.400000 0.080000 0.760000
v 0.600000 0.080000 0.760000
v 0.600000 0.080000 1.080000
v 0.400000 0.080000 1.080000
vt 0.0 0.0
vt 1.0 0.0
vt 1.0 1.0
vt 0.0 1.0
g cuff_facing_R
usemtl MAT_Hero
f 77/77 78/78 79/79 80/80
