mtllib origami-pocket-camp-set-prototype.mtl
o OrigamiPocketCampSetPrototype
v 0.000000 0.000000 0.700000
v 0.080000 0.000000 0.700000
v 0.075000 0.090000 0.700000
v 0.005000 0.090000 0.700000
v 0.120000 0.000000 0.730000
v 0.200000 0.000000 0.730000
v 0.195000 0.090000 0.730000
v 0.125000 0.090000 0.730000
v 0.240000 0.000000 0.760000
v 0.320000 0.000000 0.760000
v 0.315000 0.090000 0.760000
v 0.245000 0.090000 0.760000
v 0.360000 0.000000 0.700000
v 0.440000 0.000000 0.700000
v 0.435000 0.090000 0.700000
v 0.365000 0.090000 0.700000
v 0.480000 0.000000 0.730000
v 0.560000 0.000000 0.730000
v 0.555000 0.090000 0.730000
v 0.485000 0.090000 0.730000
v 0.000000 0.140000 0.760000
v 0.080000 0.140000 0.760000
v 0.075000 0.230000 0.760000
v 0.005000 0.230000 0.760000
v 0.120000 0.140000 0.700000
v 0.200000 0.140000 0.700000
v 0.195000 0.230000 0.700000
v 0.125000 0.230000 0.700000
v 0.240000 0.140000 0.730000
v 0.320000 0.140000 0.730000
v 0.315000 0.230000 0.730000
v 0.245000 0.230000 0.730000
v 0.360000 0.140000 0.760000
v 0.440000 0.140000 0.760000
v 0.435000 0.230000 0.760000
v 0.365000 0.230000 0.760000
v 0.480000 0.140000 0.700000
v 0.560000 0.140000 0.700000
v 0.555000 0.230000 0.700000
v 0.485000 0.230000 0.700000
v 0.000000 0.280000 0.730000
v 0.080000 0.280000 0.730000
v 0.075000 0.370000 0.730000
v 0.005000 0.370000 0.730000
v 0.120000 0.280000 0.760000
v 0.200000 0.280000 0.760000
v 0.195000 0.370000 0.760000
v 0.125000 0.370000 0.760000
v 0.240000 0.280000 0.700000
v 0.320000 0.280000 0.700000
v 0.315000 0.370000 0.700000
v 0.245000 0.370000 0.700000
v 0.360000 0.280000 0.730000
v 0.440000 0.280000 0.730000
v 0.435000 0.370000 0.730000
v 0.365000 0.370000 0.730000
v 0.480000 0.280000 0.760000
v 0.560000 0.280000 0.760000
v 0.555000 0.370000 0.760000
v 0.485000 0.370000 0.760000
vt 0.050000 0.050000
vt 0.130000 0.050000
vt 0.130000 0.130000
vt 0.050000 0.130000
vt 0.230000 0.050000
vt 0.310000 0.050000
vt 0.310000 0.130000
vt 0.230000 0.130000
vt 0.410000 0.050000
vt 0.490000 0.050000
vt 0.490000 0.130000
vt 0.410000 0.130000
vt 0.590000 0.050000
vt 0.670000 0.050000
vt 0.670000 0.130000
vt 0.590000 0.130000
vt 0.770000 0.050000
vt 0.850000 0.050000
vt 0.850000 0.130000
vt 0.770000 0.130000
vt 0.050000 0.330000
vt 0.130000 0.330000
vt 0.130000 0.410000
vt 0.050000 0.410000
vt 0.230000 0.330000
vt 0.310000 0.330000
vt 0.310000 0.410000
vt 0.230000 0.410000
vt 0.410000 0.330000
vt 0.490000 0.330000
vt 0.490000 0.410000
vt 0.410000 0.410000
vt 0.590000 0.330000
vt 0.670000 0.330000
vt 0.670000 0.410000
vt 0.590000 0.410000
vt 0.770000 0.330000
vt 0.850000 0.330000
vt 0.850000 0.410000
vt 0.770000 0.410000
vt 0.050000 0.610000
vt 0.130000 0.610000
vt 0.130000 0.690000
vt 0.050000 0.690000
vt 0.230000 0.610000
vt 0.310000 0.610000
vt 0.310000 0.690000
vt 0.230000 0.690000
vt 0.410000 0.610000
vt 0.490000 0.610000
vt 0.490000 0.690000
vt 0.410000 0.690000
vt 0.590000 0.610000
vt 0.670000 0.610000
vt 0.670000 0.690000
vt 0.590000 0.690000
vt 0.770000 0.610000
vt 0.850000 0.610000
vt 0.850000 0.690000
vt 0.770000 0.690000
g shirt_front_L
usemtl fabric_outer
f 1/1 2/2 3/3 4/4
g shirt_front_R
usemtl fabric_outer
f 5/5 6/6 7/7 8/8
g shirt_back
usemtl fabric_outer
f 9/9 10/10 11/11 12/12
g sleeve_L
usemtl fabric_outer
f 13/13 14/14 15/15 16/16
g sleeve_R
usemtl fabric_outer
f 17/17 18/18 19/19 20/20
g inner_top
usemtl fabric_inner
f 21/21 22/22 23/23 24/24
g short_front_L
usemtl fabric_bottom
f 25/25 26/26 27/27 28/28
g short_front_R
usemtl fabric_bottom
f 29/29 30/30 31/31 32/32
g short_back_L
usemtl fabric_bottom
f 33/33 34/34 35/35 36/36
g short_back_R
usemtl fabric_bottom
f 37/37 38/38 39/39 40/40
g waistband
usemtl fabric_bottom
f 41/41 42/42 43/43 44/44
g origami_pocket_chest
usemtl accent
f 45/45 46/46 47/47 48/48
g origami_pocket_hip_L
usemtl accent
f 49/49 50/50 51/51 52/52
g origami_pocket_hip_R
usemtl accent
f 53/53 54/54 55/55 56/56
g collar_pair
usemtl fabric_outer
f 57/57 58/58 59/59 60/60
