# Noctelle Shrug Dress Set panel prototype
mtllib noctelle-shrug-dress.mtl
v -0.4300 -0.0800 0.5700
v -0.2900 -0.0800 0.5700
v -0.2900 -0.0800 0.7300
v -0.4300 -0.0800 0.7300
v -0.2500 -0.0800 0.5700
v -0.1100 -0.0800 0.5700
v -0.1100 -0.0800 0.7300
v -0.2500 -0.0800 0.7300
v -0.0700 0.0800 0.5700
v 0.0700 0.0800 0.5700
v 0.0700 0.0800 0.7300
v -0.0700 0.0800 0.7300
v 0.1100 0.0800 0.5700
v 0.2500 0.0800 0.5700
v 0.2500 0.0800 0.7300
v 0.1100 0.0800 0.7300
v 0.2900 -0.0800 0.5700
v 0.4300 -0.0800 0.5700
v 0.4300 -0.0800 0.7300
v 0.2900 -0.0800 0.7300
v -0.4300 -0.0800 0.7700
v -0.2900 -0.0800 0.7700
v -0.2900 -0.0800 0.9300
v -0.4300 -0.0800 0.9300
v -0.2500 0.0800 0.7700
v -0.1100 0.0800 0.7700
v -0.1100 0.0800 0.9300
v -0.2500 0.0800 0.9300
v -0.0700 0.0800 0.7700
v 0.0700 0.0800 0.7700
v 0.0700 0.0800 0.9300
v -0.0700 0.0800 0.9300
v 0.1100 0.0800 0.7700
v 0.2500 0.0800 0.7700
v 0.2500 0.0800 0.9300
v 0.1100 0.0800 0.9300
v 0.2900 0.0800 0.7700
v 0.4300 0.0800 0.7700
v 0.4300 0.0800 0.9300
v 0.2900 0.0800 0.9300
v -0.4300 -0.0800 0.9700
v -0.2900 -0.0800 0.9700
v -0.2900 -0.0800 1.1300
v -0.4300 -0.0800 1.1300
v -0.2500 -0.0800 0.9700
v -0.1100 -0.0800 0.9700
v -0.1100 -0.0800 1.1300
v -0.2500 -0.0800 1.1300
v -0.0700 0.0800 0.9700
v 0.0700 0.0800 0.9700
v 0.0700 0.0800 1.1300
v -0.0700 0.0800 1.1300
v 0.1100 0.0800 0.9700
v 0.2500 0.0800 0.9700
v 0.2500 0.0800 1.1300
v 0.1100 0.0800 1.1300
v 0.2900 0.0800 1.0200
v 0.4300 0.0800 1.0200
v 0.4300 0.0800 1.0800
v 0.2900 0.0800 1.0800
v -0.4300 0.0800 1.1700
v -0.2900 0.0800 1.1700
v -0.2900 0.0800 1.3300
v -0.4300 0.0800 1.3300
v -0.2500 0.0800 1.1700
v -0.1100 0.0800 1.1700
v -0.1100 0.0800 1.3300
v -0.2500 0.0800 1.3300
v -0.0700 0.0800 1.2200
v 0.0700 0.0800 1.2200
v 0.0700 0.0800 1.2800
v -0.0700 0.0800 1.2800
v 0.1100 -0.0800 1.2200
v 0.2500 -0.0800 1.2200
v 0.2500 -0.0800 1.2800
v 0.1100 -0.0800 1.2800
v 0.2900 -0.0800 1.2200
v 0.4300 -0.0800 1.2200
v 0.4300 -0.0800 1.2800
v 0.2900 -0.0800 1.2800
v -0.4300 0.0800 1.4200
v -0.2900 0.0800 1.4200
v -0.2900 0.0800 1.4800
v -0.4300 0.0800 1.4800
v -0.2500 0.0800 1.4200
v -0.1100 0.0800 1.4200
v -0.1100 0.0800 1.4800
v -0.2500 0.0800 1.4800
v -0.0700 -0.0800 1.4200
v 0.0700 -0.0800 1.4200
v 0.0700 -0.0800 1.4800
v -0.0700 -0.0800 1.4800
v 0.1300 0.0800 1.3700
v 0.2300 0.0800 1.3700
v 0.2300 0.0800 1.5300
v 0.1300 0.0800 1.5300
v 0.3100 0.0800 1.3700
v 0.4100 0.0800 1.3700
v 0.4100 0.0800 1.5300
v 0.3100 0.0800 1.5300
v -0.4100 0.0800 1.5700
v -0.3100 0.0800 1.5700
v -0.3100 0.0800 1.7300
v -0.4100 0.0800 1.7300
vt 0 0
vt 1 0
vt 1 1
vt 0 1
vt 0 0
vt 1 0
vt 1 1
vt 0 1
vt 0 0
vt 1 0
vt 1 1
vt 0 1
vt 0 0
vt 1 0
vt 1 1
vt 0 1
vt 0 0
vt 1 0
vt 1 1
vt 0 1
vt 0 0
vt 1 0
vt 1 1
vt 0 1
vt 0 0
vt 1 0
vt 1 1
vt 0 1
vt 0 0
vt 1 0
vt 1 1
vt 0 1
vt 0 0
vt 1 0
vt 1 1
vt 0 1
vt 0 0
vt 1 0
vt 1 1
vt 0 1
vt 0 0
vt 1 0
vt 1 1
vt 0 1
vt 0 0
vt 1 0
vt 1 1
vt 0 1
vt 0 0
vt 1 0
vt 1 1
vt 0 1
vt 0 0
vt 1 0
vt 1 1
vt 0 1
vt 0 0
vt 1 0
vt 1 1
vt 0 1
vt 0 0
vt 1 0
vt 1 1
vt 0 1
vt 0 0
vt 1 0
vt 1 1
vt 0 1
vt 0 0
vt 1 0
vt 1 1
vt 0 1
vt 0 0
vt 1 0
vt 1 1
vt 0 1
vt 0 0
vt 1 0
vt 1 1
vt 0 1
vt 0 0
vt 1 0
vt 1 1
vt 0 1
vt 0 0
vt 1 0
vt 1 1
vt 0 1
vt 0 0
vt 1 0
vt 1 1
vt 0 1
vt 0 0
vt 1 0
vt 1 1
vt 0 1
vt 0 0
vt 1 0
vt 1 1
vt 0 1
vt 0 0
vt 1 0
vt 1 1
vt 0 1
vt 0 0
vt 1 0
vt 1 1
vt 0 1
vt 0 0
vt 1 0
vt 1 1
vt 0 1
vt 0 0
vt 1 0
vt 1 1
vt 0 1
o bodice_front_L
g bodice_front_L
usemtl MAT_Noctelle_Dress
f 1/1 2/2 3/3 4/4
o bodice_front_R
g bodice_front_R
usemtl MAT_Noctelle_Dress
f 5/5 6/6 7/7 8/8
o bodice_back_L
g bodice_back_L
usemtl MAT_Noctelle_Dress
f 9/9 10/10 11/11 12/12
o bodice_back_R
g bodice_back_R
usemtl MAT_Noctelle_Dress
f 13/13 14/14 15/15 16/16
o skirt_front_L
g skirt_front_L
usemtl MAT_Noctelle_Dress
f 17/17 18/18 19/19 20/20
o skirt_front_R
g skirt_front_R
usemtl MAT_Noctelle_Dress
f 21/21 22/22 23/23 24/24
o skirt_back_L
g skirt_back_L
usemtl MAT_Noctelle_Dress
f 25/25 26/26 27/27 28/28
o skirt_back_R
g skirt_back_R
usemtl MAT_Noctelle_Dress
f 29/29 30/30 31/31 32/32
o offshoulder_band
g offshoulder_band
usemtl MAT_Noctelle_Shrug
f 33/33 34/34 35/35 36/36
o shrug_back_yoke
g shrug_back_yoke
usemtl MAT_Noctelle_Shrug
f 37/37 38/38 39/39 40/40
o shrug_front_L
g shrug_front_L
usemtl MAT_Noctelle_Shrug
f 41/41 42/42 43/43 44/44
o shrug_front_R
g shrug_front_R
usemtl MAT_Noctelle_Shrug
f 45/45 46/46 47/47 48/48
o sleeve_upper_L
g sleeve_upper_L
usemtl MAT_Noctelle_Shrug
f 49/49 50/50 51/51 52/52
o sleeve_lower_L
g sleeve_lower_L
usemtl MAT_Noctelle_Shrug
f 53/53 54/54 55/55 56/56
o cuff_L
g cuff_L
usemtl MAT_Noctelle_Trim
f 57/57 58/58 59/59 60/60
o sleeve_upper_R
g sleeve_upper_R
usemtl MAT_Noctelle_Shrug
f 61/61 62/62 63/63 64/64
o sleeve_lower_R
g sleeve_lower_R
usemtl MAT_Noctelle_Shrug
f 65/65 66/66 67/67 68/68
o cuff_R
g cuff_R
usemtl MAT_Noctelle_Trim
f 69/69 70/70 71/71 72/72
o chest_strap_L
g chest_strap_L
usemtl MAT_Noctelle_Trim
f 73/73 74/74 75/75 76/76
o chest_strap_R
g chest_strap_R
usemtl MAT_Noctelle_Trim
f 77/77 78/78 79/79 80/80
o back_strap_L
g back_strap_L
usemtl MAT_Noctelle_Trim
f 81/81 82/82 83/83 84/84
o back_strap_R
g back_strap_R
usemtl MAT_Noctelle_Trim
f 85/85 86/86 87/87 88/88
o waist_belt
g waist_belt
usemtl MAT_Noctelle_Trim
f 89/89 90/90 91/91 92/92
o back_bow_L
g back_bow_L
usemtl MAT_Noctelle_Trim
f 93/93 94/94 95/95 96/96
o back_bow_R
g back_bow_R
usemtl MAT_Noctelle_Trim
f 97/97 98/98 99/99 100/100
o back_bow_knot
g back_bow_knot
usemtl MAT_Noctelle_Trim
f 101/101 102/102 103/103 104/104
