mtllib spine-louver-jacket-set.mtl
o SpineLouverJacketSet
v -0.280000 0.030000 1.240000
v -0.030000 0.030000 1.240000
v -0.030000 0.030000 1.620000
v -0.280000 0.030000 1.620000
v 0.030000 0.030000 1.240000
v 0.280000 0.030000 1.240000
v 0.280000 0.030000 1.620000
v 0.030000 0.030000 1.620000
v -0.280000 0.100000 1.240000
v 0.280000 0.100000 1.240000
v 0.280000 0.100000 1.620000
v -0.280000 0.100000 1.620000
v -0.600000 0.030000 1.140000
v -0.300000 0.030000 1.140000
v -0.300000 0.030000 1.500000
v -0.600000 0.030000 1.500000
v 0.300000 0.030000 1.140000
v 0.600000 0.030000 1.140000
v 0.600000 0.030000 1.500000
v 0.300000 0.030000 1.500000
v -0.200000 0.000000 1.160000
v 0.200000 0.000000 1.160000
v 0.200000 0.000000 1.500000
v -0.200000 0.000000 1.500000
v -0.200000 0.080000 1.160000
v 0.200000 0.080000 1.160000
v 0.200000 0.080000 1.500000
v -0.200000 0.080000 1.500000
v -0.250000 0.010000 0.150000
v -0.030000 0.010000 0.150000
v -0.030000 0.010000 1.140000
v -0.250000 0.010000 1.140000
v 0.030000 0.010000 0.150000
v 0.250000 0.010000 0.150000
v 0.250000 0.010000 1.140000
v 0.030000 0.010000 1.140000
v -0.250000 0.090000 0.150000
v -0.030000 0.090000 0.150000
v -0.030000 0.090000 1.140000
v -0.250000 0.090000 1.140000
v 0.030000 0.090000 0.150000
v 0.250000 0.090000 0.150000
v 0.250000 0.090000 1.140000
v 0.030000 0.090000 1.140000
v -0.270000 0.050000 1.080000
v 0.270000 0.050000 1.080000
v 0.270000 0.050000 1.180000
v -0.270000 0.050000 1.180000
v -0.220000 0.140000 1.490000
v 0.220000 0.140000 1.490000
v 0.220000 0.140000 1.570000
v -0.220000 0.140000 1.570000
v -0.200000 0.140000 1.400000
v 0.200000 0.140000 1.400000
v 0.200000 0.140000 1.480000
v -0.200000 0.140000 1.480000
v -0.180000 0.140000 1.310000
v 0.180000 0.140000 1.310000
v 0.180000 0.140000 1.390000
v -0.180000 0.140000 1.390000
v -0.160000 0.140000 1.220000
v 0.160000 0.140000 1.220000
v 0.160000 0.140000 1.300000
v -0.160000 0.140000 1.300000
v -0.140000 0.140000 1.130000
v 0.140000 0.140000 1.130000
v 0.140000 0.140000 1.210000
v -0.140000 0.140000 1.210000
v -0.230000 0.115000 1.120000
v 0.230000 0.115000 1.120000
v 0.230000 0.115000 1.580000
v -0.230000 0.115000 1.580000
vt 0.0 0.0
vt 1.0 0.0
vt 1.0 1.0
vt 0.0 1.0
vt 0.0 0.0
vt 1.0 0.0
vt 1.0 1.0
vt 0.0 1.0
vt 0.0 0.0
vt 1.0 0.0
vt 1.0 1.0
vt 0.0 1.0
vt 0.0 0.0
vt 1.0 0.0
vt 1.0 1.0
vt 0.0 1.0
vt 0.0 0.0
vt 1.0 0.0
vt 1.0 1.0
vt 0.0 1.0
vt 0.0 0.0
vt 1.0 0.0
vt 1.0 1.0
vt 0.0 1.0
vt 0.0 0.0
vt 1.0 0.0
vt 1.0 1.0
vt 0.0 1.0
vt 0.0 0.0
vt 1.0 0.0
vt 1.0 1.0
vt 0.0 1.0
vt 0.0 0.0
vt 1.0 0.0
vt 1.0 1.0
vt 0.0 1.0
vt 0.0 0.0
vt 1.0 0.0
vt 1.0 1.0
vt 0.0 1.0
vt 0.0 0.0
vt 1.0 0.0
vt 1.0 1.0
vt 0.0 1.0
vt 0.0 0.0
vt 1.0 0.0
vt 1.0 1.0
vt 0.0 1.0
vt 0.0 0.0
vt 1.0 0.0
vt 1.0 1.0
vt 0.0 1.0
vt 0.0 0.0
vt 1.0 0.0
vt 1.0 1.0
vt 0.0 1.0
vt 0.0 0.0
vt 1.0 0.0
vt 1.0 1.0
vt 0.0 1.0
vt 0.0 0.0
vt 1.0 0.0
vt 1.0 1.0
vt 0.0 1.0
vt 0.0 0.0
vt 1.0 0.0
vt 1.0 1.0
vt 0.0 1.0
vt 0.0 0.0
vt 1.0 0.0
vt 1.0 1.0
vt 0.0 1.0
g jacket_front_L
usemtl MAT_Shell
f 1/1 2/2 3/3 4/4
g jacket_front_R
usemtl MAT_Shell
f 5/5 6/6 7/7 8/8
g jacket_back
usemtl MAT_Shell
f 9/9 10/10 11/11 12/12
g sleeve_L
usemtl MAT_Shell
f 13/13 14/14 15/15 16/16
g sleeve_R
usemtl MAT_Shell
f 17/17 18/18 19/19 20/20
g inner_front
usemtl MAT_Inner
f 21/21 22/22 23/23 24/24
g inner_back
usemtl MAT_Inner
f 25/25 26/26 27/27 28/28
g trouser_front_L
usemtl MAT_Bottoms
f 29/29 30/30 31/31 32/32
g trouser_front_R
usemtl MAT_Bottoms
f 33/33 34/34 35/35 36/36
g trouser_back_L
usemtl MAT_Bottoms
f 37/37 38/38 39/39 40/40
g trouser_back_R
usemtl MAT_Bottoms
f 41/41 42/42 43/43 44/44
g waistband
usemtl MAT_Bottoms
f 45/45 46/46 47/47 48/48
g louver_A
usemtl MAT_Hero
f 49/49 50/50 51/51 52/52
g louver_B
usemtl MAT_Accent
f 53/53 54/54 55/55 56/56
g louver_C
usemtl MAT_Hero
f 57/57 58/58 59/59 60/60
g louver_D
usemtl MAT_Accent
f 61/61 62/62 63/63 64/64
g louver_E
usemtl MAT_Hero
f 65/65 66/66 67/67 68/68
g louver_facing
usemtl MAT_Hero
f 69/69 70/70 71/71 72/72
