mtllib petal-hem-tunic.mtl
# panel prototype: 76 vertices, 76 UVs, 19 quad faces
v -0.42 1.35 0.10
v -0.04 1.35 0.12
v -0.06 0.78 0.16
v -0.40 0.78 0.14
v 0.04 1.35 0.12
v 0.42 1.35 0.10
v 0.40 0.78 0.14
v 0.06 0.78 0.16
v -0.40 1.33 -0.12
v 0.40 1.33 -0.12
v 0.36 0.78 -0.14
v -0.36 0.78 -0.14
v -0.56 1.30 0.02
v -0.42 1.28 0.06
v -0.40 0.88 0.08
v -0.62 0.92 0.00
v 0.42 1.28 0.06
v 0.56 1.30 0.02
v 0.62 0.92 0.00
v 0.40 0.88 0.08
v -0.30 1.28 0.17
v 0.30 1.28 0.17
v 0.28 0.82 0.19
v -0.28 0.82 0.19
v -0.28 1.26 -0.16
v 0.28 1.26 -0.16
v 0.26 0.82 -0.18
v -0.26 0.82 -0.18
v -0.34 0.78 0.13
v -0.02 0.78 0.14
v -0.04 0.34 0.12
v -0.36 0.34 0.10
v 0.02 0.78 0.14
v 0.34 0.78 0.13
v 0.36 0.34 0.10
v 0.04 0.34 0.12
v -0.34 0.76 -0.13
v -0.02 0.76 -0.14
v -0.04 0.34 -0.12
v -0.36 0.34 -0.10
v 0.02 0.76 -0.14
v 0.34 0.76 -0.13
v 0.36 0.34 -0.10
v 0.04 0.34 -0.12
v -0.36 0.83 0.12
v 0.36 0.83 0.12
v 0.35 0.74 0.13
v -0.35 0.74 0.13
v -0.34 0.78 -0.12
v 0.34 0.78 -0.12
v 0.33 0.70 -0.13
v -0.33 0.70 -0.13
v -0.46 0.76 0.11
v -0.24 0.76 0.13
v -0.18 0.42 0.18
v -0.52 0.44 0.12
v -0.30 0.75 0.14
v -0.08 0.75 0.16
v -0.03 0.38 0.20
v -0.34 0.40 0.15
v -0.12 0.75 0.16
v 0.12 0.75 0.17
v 0.13 0.37 0.21
v -0.13 0.37 0.21
v 0.08 0.75 0.16
v 0.30 0.75 0.14
v 0.34 0.40 0.15
v 0.03 0.38 0.20
v 0.24 0.76 0.13
v 0.46 0.76 0.11
v 0.52 0.44 0.12
v 0.18 0.42 0.18
v 0.26 0.78 0.20
v 0.48 0.76 0.15
v 0.54 0.48 0.18
v 0.20 0.45 0.24
vt 0 0
vt 1 0
vt 1 1
vt 0 1
vt 0 0
vt 1 0
vt 1 1
vt 0 1
vt 0 0
vt 1 0
vt 1 1
vt 0 1
vt 0 0
vt 1 0
vt 1 1
vt 0 1
vt 0 0
vt 1 0
vt 1 1
vt 0 1
vt 0 0
vt 1 0
vt 1 1
vt 0 1
vt 0 0
vt 1 0
vt 1 1
vt 0 1
vt 0 0
vt 1 0
vt 1 1
vt 0 1
vt 0 0
vt 1 0
vt 1 1
vt 0 1
vt 0 0
vt 1 0
vt 1 1
vt 0 1
vt 0 0
vt 1 0
vt 1 1
vt 0 1
vt 0 0
vt 1 0
vt 1 1
vt 0 1
vt 0 0
vt 1 0
vt 1 1
vt 0 1
vt 0 0
vt 1 0
vt 1 1
vt 0 1
vt 0 0
vt 1 0
vt 1 1
vt 0 1
vt 0 0
vt 1 0
vt 1 1
vt 0 1
vt 0 0
vt 1 0
vt 1 1
vt 0 1
vt 0 0
vt 1 0
vt 1 1
vt 0 1
vt 0 0
vt 1 0
vt 1 1
vt 0 1

g tunic_front_L
usemtl MAT_Petal_Tunic
f 1/1 2/2 3/3 4/4
g tunic_front_R
usemtl MAT_Petal_Tunic
f 5/5 6/6 7/7 8/8
g tunic_back
usemtl MAT_Petal_Tunic
f 9/9 10/10 11/11 12/12
g sleeve_L
usemtl MAT_Petal_Tunic
f 13/13 14/14 15/15 16/16
g sleeve_R
usemtl MAT_Petal_Tunic
f 17/17 18/18 19/19 20/20
g inner_front
usemtl MAT_Petal_Inner
f 21/21 22/22 23/23 24/24
g inner_back
usemtl MAT_Petal_Inner
f 25/25 26/26 27/27 28/28
g shorts_front_L
usemtl MAT_Petal_Shorts
f 29/29 30/30 31/31 32/32
g shorts_front_R
usemtl MAT_Petal_Shorts
f 33/33 34/34 35/35 36/36
g shorts_back_L
usemtl MAT_Petal_Shorts
f 37/37 38/38 39/39 40/40
g shorts_back_R
usemtl MAT_Petal_Shorts
f 41/41 42/42 43/43 44/44
g waistband_outer
usemtl MAT_Petal_Shorts
f 45/45 46/46 47/47 48/48
g waistband_inner
usemtl MAT_Petal_Shorts
f 49/49 50/50 51/51 52/52
g petal_A
usemtl MAT_Petal_Inner
f 53/53 54/54 55/55 56/56
g petal_B
usemtl MAT_Petal_Inner
f 57/57 58/58 59/59 60/60
g petal_C
usemtl MAT_Petal_Inner
f 61/61 62/62 63/63 64/64
g petal_D
usemtl MAT_Petal_Inner
f 65/65 66/66 67/67 68/68
g petal_E
usemtl MAT_Petal_Inner
f 69/69 70/70 71/71 72/72
g overlap_flap_R
usemtl MAT_Petal_Accent
f 73/73 74/74 75/75 76/76
