mtllib ripple-tuck-shirt-set-prototype.mtl
o RippleTuckPrototype
v -1.0000 1.7000 0.0000
v -0.6600 1.7000 0.0100
v -0.6600 1.2800 0.0100
v -1.0000 1.2800 0.0000
v -0.5200 1.7000 0.0000
v -0.1800 1.7000 0.0100
v -0.1800 1.2800 0.0100
v -0.5200 1.2800 0.0000
v -0.0400 1.7000 0.0000
v 0.3000 1.7000 0.0100
v 0.3000 1.2800 0.0100
v -0.0400 1.2800 0.0000
v 0.4400 1.7000 0.0000
v 0.7800 1.7000 0.0100
v 0.7800 1.2800 0.0100
v 0.4400 1.2800 0.0000
v 0.9200 1.7000 0.0000
v 1.2600 1.7000 0.0100
v 1.2600 1.2800 0.0100
v 0.9200 1.2800 0.0000
v -1.0000 1.1500 0.0000
v -0.6600 1.1500 0.0100
v -0.6600 0.7300 0.0100
v -1.0000 0.7300 0.0000
v -0.5200 1.1500 0.0000
v -0.1800 1.1500 0.0100
v -0.1800 0.7300 0.0100
v -0.5200 0.7300 0.0000
v -0.0400 1.1500 0.0000
v 0.3000 1.1500 0.0100
v 0.3000 0.7300 0.0100
v -0.0400 0.7300 0.0000
v 0.4400 1.1500 0.0000
v 0.7800 1.1500 0.0100
v 0.7800 0.7300 0.0100
v 0.4400 0.7300 0.0000
v 0.9200 1.1500 0.0000
v 1.2600 1.1500 0.0100
v 1.2600 0.7300 0.0100
v 0.9200 0.7300 0.0000
v -1.0000 0.6000 0.0000
v -0.6600 0.6000 0.0100
v -0.6600 0.1800 0.0100
v -1.0000 0.1800 0.0000
v -0.5200 0.6000 0.0000
v -0.1800 0.6000 0.0100
v -0.1800 0.1800 0.0100
v -0.5200 0.1800 0.0000
v -0.0400 0.6000 0.0000
v 0.3000 0.6000 0.0100
v 0.3000 0.1800 0.0100
v -0.0400 0.1800 0.0000
v 0.4400 0.6000 0.0200
v 0.7400 0.6000 0.0300
v 0.7400 0.4900 0.0300
v 0.4400 0.4900 0.0200
v 0.9200 0.6000 0.0200
v 1.2200 0.6500 0.0300
v 1.2200 0.5400 0.0300
v 0.9200 0.4900 0.0200
v -1.0000 0.0500 0.0200
v -0.7000 0.1000 0.0300
v -0.7000 -0.0100 0.0300
v -1.0000 -0.0600 0.0200
v -0.5200 0.0500 0.0200
v -0.2200 0.0500 0.0300
v -0.2200 -0.0600 0.0300
v -0.5200 -0.0600 0.0200
v -0.0400 0.0500 0.0200
v 0.2600 0.1000 0.0300
v 0.2600 -0.0100 0.0300
v -0.0400 -0.0600 0.0200
v 0.4400 0.0500 0.0200
v 0.7400 0.1000 0.0300
v 0.7400 -0.0100 0.0300
v 0.4400 -0.0600 0.0200
vt 0.0100 0.0100
vt 0.1700 0.0100
vt 0.1700 0.1900
vt 0.0100 0.1900
vt 0.2000 0.0100
vt 0.3600 0.0100
vt 0.3600 0.1900
vt 0.2000 0.1900
vt 0.3900 0.0100
vt 0.5500 0.0100
vt 0.5500 0.1900
vt 0.3900 0.1900
vt 0.5800 0.0100
vt 0.7400 0.0100
vt 0.7400 0.1900
vt 0.5800 0.1900
vt 0.7700 0.0100
vt 0.9300 0.0100
vt 0.9300 0.1900
vt 0.7700 0.1900
vt 0.0100 0.2500
vt 0.1700 0.2500
vt 0.1700 0.4300
vt 0.0100 0.4300
vt 0.2000 0.2500
vt 0.3600 0.2500
vt 0.3600 0.4300
vt 0.2000 0.4300
vt 0.3900 0.2500
vt 0.5500 0.2500
vt 0.5500 0.4300
vt 0.3900 0.4300
vt 0.5800 0.2500
vt 0.7400 0.2500
vt 0.7400 0.4300
vt 0.5800 0.4300
vt 0.7700 0.2500
vt 0.9300 0.2500
vt 0.9300 0.4300
vt 0.7700 0.4300
vt 0.0100 0.4900
vt 0.1700 0.4900
vt 0.1700 0.6700
vt 0.0100 0.6700
vt 0.2000 0.4900
vt 0.3600 0.4900
vt 0.3600 0.6700
vt 0.2000 0.6700
vt 0.3900 0.4900
vt 0.5500 0.4900
vt 0.5500 0.6700
vt 0.3900 0.6700
vt 0.5800 0.4900
vt 0.7400 0.4900
vt 0.7400 0.6700
vt 0.5800 0.6700
vt 0.7700 0.4900
vt 0.9300 0.4900
vt 0.9300 0.6700
vt 0.7700 0.6700
vt 0.0100 0.7300
vt 0.1700 0.7300
vt 0.1700 0.9100
vt 0.0100 0.9100
vt 0.2000 0.7300
vt 0.3600 0.7300
vt 0.3600 0.9100
vt 0.2000 0.9100
vt 0.3900 0.7300
vt 0.5500 0.7300
vt 0.5500 0.9100
vt 0.3900 0.9100
vt 0.5800 0.7300
vt 0.7400 0.7300
vt 0.7400 0.9100
vt 0.5800 0.9100
g shirt_front_L
usemtl fabric_outer
f 1/1 2/2 3/3 4/4
g shirt_front_R
usemtl fabric_outer
f 5/5 6/6 7/7 8/8
g shirt_back
usemtl fabric_outer
f 9/9 10/10 11/11 12/12
g sleeve_L
usemtl fabric_outer
f 13/13 14/14 15/15 16/16
g sleeve_R
usemtl fabric_outer
f 17/17 18/18 19/19 20/20
g inner_front
usemtl fabric_inner
f 21/21 22/22 23/23 24/24
g inner_back
usemtl fabric_inner
f 25/25 26/26 27/27 28/28
g trouser_front_L
usemtl fabric_bottom
f 29/29 30/30 31/31 32/32
g trouser_front_R
usemtl fabric_bottom
f 33/33 34/34 35/35 36/36
g trouser_back_L
usemtl fabric_bottom
f 37/37 38/38 39/39 40/40
g trouser_back_R
usemtl fabric_bottom
f 41/41 42/42 43/43 44/44
g waistband
usemtl fabric_bottom
f 45/45 46/46 47/47 48/48
g back_yoke
usemtl fabric_outer
f 49/49 50/50 51/51 52/52
g tuck_L_A
usemtl accent
f 53/53 54/54 55/55 56/56
g tuck_L_B
usemtl accent
f 57/57 58/58 59/59 60/60
g tuck_L_C
usemtl accent
f 61/61 62/62 63/63 64/64
g tuck_R_A
usemtl accent
f 65/65 66/66 67/67 68/68
g tuck_R_B
usemtl accent
f 69/69 70/70 71/71 72/72
g tuck_R_C
usemtl accent
f 73/73 74/74 75/75 76/76
