mtllib jade-knot-tulip.mtl
o JadeKnotTulipPrototype
g bodice_front_L
usemtl MAT_Jade_Body
v -0.2400 0.0000 1.4500
v 0.0000 0.0000 1.4500
v 0.0000 0.0000 1.0500
v -0.2200 0.0000 1.0500
vt 0.0200 0.0200
vt 0.1800 0.0200
vt 0.1800 0.1400
vt 0.0200 0.1400
f 1/1 2/2 3/3 4/4
g bodice_front_R
usemtl MAT_Jade_Body
v 0.0000 0.0000 1.4500
v 0.2400 0.0000 1.4500
v 0.2200 0.0000 1.0500
v 0.0000 0.0000 1.0500
vt 0.2600 0.0200
vt 0.4200 0.0200
vt 0.4200 0.1400
vt 0.2600 0.1400
f 5/5 6/6 7/7 8/8
g bodice_back
usemtl MAT_Jade_Body
v -0.2400 0.0800 1.4500
v 0.2400 0.0800 1.4500
v 0.2200 0.0800 1.0500
v -0.2200 0.0800 1.0500
vt 0.5000 0.0200
vt 0.6600 0.0200
vt 0.6600 0.1400
vt 0.5000 0.1400
f 9/9 10/10 11/11 12/12
g sleeve_L
usemtl MAT_Jade_Ivory
v -0.2400 0.0000 1.4000
v -0.4200 0.0000 1.3200
v -0.3800 0.0000 1.0800
v -0.2200 0.0000 1.0800
vt 0.7400 0.0200
vt 0.9000 0.0200
vt 0.9000 0.1400
vt 0.7400 0.1400
f 13/13 14/14 15/15 16/16
g sleeve_R
usemtl MAT_Jade_Ivory
v 0.2400 0.0000 1.4000
v 0.4200 0.0000 1.3200
v 0.3800 0.0000 1.0800
v 0.2200 0.0000 1.0800
vt 0.0200 0.2000
vt 0.1800 0.2000
vt 0.1800 0.3200
vt 0.0200 0.3200
f 17/17 18/18 19/19 20/20
g stand_collar_outer
usemtl MAT_Jade_Ivory
v -0.1200 -0.0100 1.5500
v 0.1200 -0.0100 1.5500
v 0.1000 -0.0100 1.4600
v -0.1000 -0.0100 1.4600
vt 0.2600 0.2000
vt 0.4200 0.2000
vt 0.4200 0.3200
vt 0.2600 0.3200
f 21/21 22/22 23/23 24/24
g placket_facing
usemtl MAT_Jade_Plum
v -0.1000 -0.0200 1.4000
v -0.0400 -0.0200 1.4300
v 0.1800 -0.0200 1.1200
v 0.1200 -0.0200 1.0900
vt 0.5000 0.2000
vt 0.6600 0.2000
vt 0.6600 0.3200
vt 0.5000 0.3200
f 25/25 26/26 27/27 28/28
g skirt_base_L
usemtl MAT_Jade_Body
v -0.2200 0.0000 1.0500
v 0.0000 0.0000 1.0500
v -0.0400 0.0000 0.6000
v -0.3200 0.0000 0.7200
vt 0.7400 0.2000
vt 0.9000 0.2000
vt 0.9000 0.3200
vt 0.7400 0.3200
f 29/29 30/30 31/31 32/32
g skirt_base_R
usemtl MAT_Jade_Ivory
v 0.0000 0.0100 1.0500
v 0.2200 0.0100 1.0500
v 0.3200 0.0100 0.7200
v 0.0400 0.0100 0.6000
vt 0.0200 0.3800
vt 0.1800 0.3800
vt 0.1800 0.5000
vt 0.0200 0.5000
f 33/33 34/34 35/35 36/36
g tulip_leaf_L
usemtl MAT_Jade_Body
v -0.2000 -0.0200 1.0200
v 0.0200 -0.0200 1.0200
v -0.0200 -0.0200 0.5800
v -0.3400 -0.0200 0.7000
vt 0.2600 0.3800
vt 0.4200 0.3800
vt 0.4200 0.5000
vt 0.2600 0.5000
f 37/37 38/38 39/39 40/40
g tulip_leaf_R
usemtl MAT_Jade_Ivory
v -0.0200 -0.0250 1.0200
v 0.2200 -0.0250 1.0200
v 0.3400 -0.0250 0.7000
v 0.0200 -0.0250 0.5800
vt 0.5000 0.3800
vt 0.6600 0.3800
vt 0.6600 0.5000
vt 0.5000 0.5000
f 41/41 42/42 43/43 44/44
g accent_leaf_R
usemtl MAT_Jade_Plum
v 0.0200 -0.0400 0.9800
v 0.2300 -0.0400 1.0000
v 0.2900 -0.0400 0.7200
v 0.0400 -0.0400 0.6200
vt 0.7400 0.3800
vt 0.9000 0.3800
vt 0.9000 0.5000
vt 0.7400 0.5000
f 45/45 46/46 47/47 48/48
g frog_knot_A
usemtl MAT_Jade_Knot
v -0.0050 -0.0500 1.3600
v 0.0650 -0.0500 1.3600
v 0.0650 -0.0500 1.3200
v -0.0050 -0.0500 1.3200
vt 0.0200 0.5600
vt 0.1800 0.5600
vt 0.1800 0.6800
vt 0.0200 0.6800
f 49/49 50/50 51/51 52/52
g frog_knot_B
usemtl MAT_Jade_Knot
v 0.0450 -0.0500 1.2700
v 0.1150 -0.0500 1.2700
v 0.1150 -0.0500 1.2300
v 0.0450 -0.0500 1.2300
vt 0.2600 0.5600
vt 0.4200 0.5600
vt 0.4200 0.6800
vt 0.2600 0.6800
f 53/53 54/54 55/55 56/56
g frog_knot_C
usemtl MAT_Jade_Knot
v 0.0950 -0.0500 1.1800
v 0.1650 -0.0500 1.1800
v 0.1650 -0.0500 1.1400
v 0.0950 -0.0500 1.1400
vt 0.5000 0.5600
vt 0.6600 0.5600
vt 0.6600 0.6800
vt 0.5000 0.6800
f 57/57 58/58 59/59 60/60
g waist_facing
usemtl MAT_Jade_Ivory
v -0.2200 -0.0100 1.0800
v 0.2200 -0.0100 1.0800
v 0.2200 -0.0100 1.0200
v -0.2200 -0.0100 1.0200
vt 0.7400 0.5600
vt 0.9000 0.5600
vt 0.9000 0.6800
vt 0.7400 0.6800
f 61/61 62/62 63/63 64/64
