mtllib crescent-rail-structural.mtl
o CrescentRailRomperStructural
v 0.0000 0.0000 0.0000
v 0.1800 0.0000 0.0000
v 0.1800 0.1800 0.0000
v 0.0000 0.1800 0.0000
v 0.2500 0.0000 0.0100
v 0.4300 0.0000 0.0100
v 0.4300 0.1800 0.0100
v 0.2500 0.1800 0.0100
v 0.5000 0.0000 0.0200
v 0.6800 0.0000 0.0200
v 0.6800 0.1800 0.0200
v 0.5000 0.1800 0.0200
v 0.7500 0.0000 0.0000
v 0.9300 0.0000 0.0000
v 0.9300 0.1800 0.0000
v 0.7500 0.1800 0.0000
v 0.0000 0.2500 0.0100
v 0.1800 0.2500 0.0100
v 0.1800 0.4300 0.0100
v 0.0000 0.4300 0.0100
v 0.2500 0.2500 0.0200
v 0.4300 0.2500 0.0200
v 0.4300 0.4300 0.0200
v 0.2500 0.4300 0.0200
v 0.5000 0.2500 0.0000
v 0.6800 0.2500 0.0000
v 0.6800 0.4300 0.0000
v 0.5000 0.4300 0.0000
v 0.7500 0.2500 0.0100
v 0.9300 0.2500 0.0100
v 0.9300 0.4300 0.0100
v 0.7500 0.4300 0.0100
v 0.0000 0.5000 0.0200
v 0.1800 0.5000 0.0200
v 0.1800 0.6800 0.0200
v 0.0000 0.6800 0.0200
v 0.2500 0.5000 0.0000
v 0.4300 0.5000 0.0000
v 0.4300 0.6800 0.0000
v 0.2500 0.6800 0.0000
v 0.5000 0.5000 0.0100
v 0.6800 0.5000 0.0100
v 0.6800 0.6800 0.0100
v 0.5000 0.6800 0.0100
v 0.7500 0.5000 0.0200
v 0.9300 0.5000 0.0200
v 0.9300 0.6800 0.0200
v 0.7500 0.6800 0.0200
vt 0.0000 0.0000
vt 1.0000 0.0000
vt 1.0000 1.0000
vt 0.0000 1.0000
vt 0.0000 0.0000
vt 1.0000 0.0000
vt 1.0000 1.0000
vt 0.0000 1.0000
vt 0.0000 0.0000
vt 1.0000 0.0000
vt 1.0000 1.0000
vt 0.0000 1.0000
vt 0.0000 0.0000
vt 1.0000 0.0000
vt 1.0000 1.0000
vt 0.0000 1.0000
vt 0.0000 0.0000
vt 1.0000 0.0000
vt 1.0000 1.0000
vt 0.0000 1.0000
vt 0.0000 0.0000
vt 1.0000 0.0000
vt 1.0000 1.0000
vt 0.0000 1.0000
vt 0.0000 0.0000
vt 1.0000 0.0000
vt 1.0000 1.0000
vt 0.0000 1.0000
vt 0.0000 0.0000
vt 1.0000 0.0000
vt 1.0000 1.0000
vt 0.0000 1.0000
vt 0.0000 0.0000
vt 1.0000 0.0000
vt 1.0000 1.0000
vt 0.0000 1.0000
vt 0.0000 0.0000
vt 1.0000 0.0000
vt 1.0000 1.0000
vt 0.0000 1.0000
vt 0.0000 0.0000
vt 1.0000 0.0000
vt 1.0000 1.0000
vt 0.0000 1.0000
vt 0.0000 0.0000
vt 1.0000 0.0000
vt 1.0000 1.0000
vt 0.0000 1.0000
g romper_front_L
usemtl fabric_outer
f 1/1 2/2 3/3 4/4
g romper_front_R
usemtl fabric_outer
f 5/5 6/6 7/7 8/8
g romper_back_L
usemtl fabric_outer
f 9/9 10/10 11/11 12/12
g romper_back_R
usemtl fabric_outer
f 13/13 14/14 15/15 16/16
g waistband_front
usemtl fabric_outer
f 17/17 18/18 19/19 20/20
g waistband_back
usemtl fabric_outer
f 21/21 22/22 23/23 24/24
g sleeve_cap_L
usemtl fabric_outer
f 25/25 26/26 27/27 28/28
g sleeve_cap_R
usemtl fabric_outer
f 29/29 30/30 31/31 32/32
g crescent_rail_outer
usemtl accent
f 33/33 34/34 35/35 36/36
g crescent_rail_inner
usemtl accent
f 37/37 38/38 39/39 40/40
g rail_facing_outer
usemtl accent
f 41/41 42/42 43/43 44/44
g rail_facing_inner
usemtl accent
f 45/45 46/46 47/47 48/48
