mtllib kite-panel-cardigan-dress.mtl
v -0.7 0.0 0
v -0.4 0.0 0
v -0.4 0.25 0
v -0.7 0.25 0
v -0.3 0.0 0
v 0.0 0.0 0
v 0.0 0.25 0
v -0.3 0.25 0
v 0.1 0.0 0
v 0.4 0.0 0
v 0.4 0.25 0
v 0.1 0.25 0
v 0.5 0.0 0
v 0.8 0.0 0
v 0.8 0.25 0
v 0.5 0.25 0
v -0.7 0.35 0
v -0.4 0.35 0
v -0.4 0.60 0
v -0.7 0.60 0
v -0.3 0.35 0
v 0.0 0.35 0
v 0.0 0.60 0
v -0.3 0.60 0
v 0.1 0.35 0
v 0.4 0.35 0
v 0.4 0.60 0
v 0.1 0.60 0
v 0.5 0.35 0
v 0.8 0.35 0
v 0.8 0.60 0
v 0.5 0.60 0
v -0.7 0.70 0
v -0.4 0.70 0
v -0.4 0.95 0
v -0.7 0.95 0
v -0.3 0.70 0
v 0.0 0.70 0
v 0.0 0.95 0
v -0.3 0.95 0
v 0.1 0.70 0
v 0.4 0.70 0
v 0.4 0.95 0
v 0.1 0.95 0
v 0.5 0.70 0
v 0.8 0.70 0
v 0.8 0.95 0
v 0.5 0.95 0
v -0.5 1.05 0
v -0.2 1.05 0
v -0.2 1.30 0
v -0.5 1.30 0
v 0.2 1.05 0
v 0.5 1.05 0
v 0.5 1.30 0
v 0.2 1.30 0
vt 0 0
vt 1 0
vt 1 1
vt 0 1
vt 0 0
vt 1 0
vt 1 1
vt 0 1
vt 0 0
vt 1 0
vt 1 1
vt 0 1
vt 0 0
vt 1 0
vt 1 1
vt 0 1
vt 0 0
vt 1 0
vt 1 1
vt 0 1
vt 0 0
vt 1 0
vt 1 1
vt 0 1
vt 0 0
vt 1 0
vt 1 1
vt 0 1
vt 0 0
vt 1 0
vt 1 1
vt 0 1
vt 0 0
vt 1 0
vt 1 1
vt 0 1
vt 0 0
vt 1 0
vt 1 1
vt 0 1
vt 0 0
vt 1 0
vt 1 1
vt 0 1
vt 0 0
vt 1 0
vt 1 1
vt 0 1
vt 0 0
vt 1 0
vt 1 1
vt 0 1
vt 0 0
vt 1 0
vt 1 1
vt 0 1
o cardigan_front_L
g cardigan_front_L
usemtl MAT_Kite_Cardigan
f 1/1 2/2 3/3 4/4
o cardigan_front_R
g cardigan_front_R
usemtl MAT_Kite_Cardigan
f 5/5 6/6 7/7 8/8
o cardigan_back
g cardigan_back
usemtl MAT_Kite_Cardigan
f 9/9 10/10 11/11 12/12
o sleeve_L
g sleeve_L
usemtl MAT_Kite_Cardigan
f 13/13 14/14 15/15 16/16
o sleeve_R
g sleeve_R
usemtl MAT_Kite_Cardigan
f 17/17 18/18 19/19 20/20
o dress_front
g dress_front
usemtl MAT_Kite_Dress
f 21/21 22/22 23/23 24/24
o dress_back
g dress_back
usemtl MAT_Kite_Dress
f 25/25 26/26 27/27 28/28
o skirt_front
g skirt_front
usemtl MAT_Kite_Skirt
f 29/29 30/30 31/31 32/32
o skirt_back
g skirt_back
usemtl MAT_Kite_Skirt
f 33/33 34/34 35/35 36/36
o kite_panel_A
g kite_panel_A
usemtl MAT_Kite_Panel
f 37/37 38/38 39/39 40/40
o kite_panel_B
g kite_panel_B
usemtl MAT_Kite_Panel
f 41/41 42/42 43/43 44/44
o kite_panel_C
g kite_panel_C
usemtl MAT_Kite_Panel
f 45/45 46/46 47/47 48/48
o kite_panel_D
g kite_panel_D
usemtl MAT_Kite_Panel
f 49/49 50/50 51/51 52/52
o overlap_leaf_R
g overlap_leaf_R
usemtl MAT_Kite_Accent
f 53/53 54/54 55/55 56/56
