mtllib foldcap-shirt-set-prototype.mtl
o FoldcapShirtSetPrototype
v 0.0000 0.0000 0.0000
v 1.0000 0.0000 0.0000
v 1.0000 1.0000 0.0000
v 0.0000 1.0000 0.0000
v 1.4000 0.0000 0.0000
v 2.4000 0.0000 0.0000
v 2.4000 1.0000 0.0000
v 1.4000 1.0000 0.0000
v 2.8000 0.0000 0.0000
v 3.8000 0.0000 0.0000
v 3.8000 1.0000 0.0000
v 2.8000 1.0000 0.0000
v 4.2000 0.0000 0.0000
v 5.2000 0.0000 0.0000
v 5.2000 1.0000 0.0000
v 4.2000 1.0000 0.0000
v 5.6000 0.0000 0.0000
v 6.6000 0.0000 0.0000
v 6.6000 1.0000 0.0000
v 5.6000 1.0000 0.0000
v 0.0000 1.4000 0.0000
v 1.0000 1.4000 0.0000
v 1.0000 2.4000 0.0000
v 0.0000 2.4000 0.0000
v 1.4000 1.4000 0.0000
v 2.4000 1.4000 0.0000
v 2.4000 2.4000 0.0000
v 1.4000 2.4000 0.0000
v 2.8000 1.4000 0.0000
v 3.8000 1.4000 0.0000
v 3.8000 2.4000 0.0000
v 2.8000 2.4000 0.0000
v 4.2000 1.4000 0.1500
v 5.2000 1.4000 0.1500
v 5.2000 2.4000 0.1500
v 4.2000 2.4000 0.1500
v 5.6000 1.4000 0.1500
v 6.6000 1.4000 0.1500
v 6.6000 2.4000 0.1500
v 5.6000 2.4000 0.1500
v 0.0000 2.8000 0.1500
v 1.0000 2.8000 0.1500
v 1.0000 3.8000 0.1500
v 0.0000 3.8000 0.1500
v 1.4000 2.8000 0.1500
v 2.4000 2.8000 0.1500
v 2.4000 3.8000 0.1500
v 1.4000 3.8000 0.1500
v 2.8000 2.8000 0.0000
v 3.8000 2.8000 0.0000
v 3.8000 3.8000 0.0000
v 2.8000 3.8000 0.0000
vt 0.0500 0.0500
vt 0.9500 0.0500
vt 0.9500 0.9500
vt 0.0500 0.9500
vt 0.0500 0.0500
vt 0.9500 0.0500
vt 0.9500 0.9500
vt 0.0500 0.9500
vt 0.0500 0.0500
vt 0.9500 0.0500
vt 0.9500 0.9500
vt 0.0500 0.9500
vt 0.0500 0.0500
vt 0.9500 0.0500
vt 0.9500 0.9500
vt 0.0500 0.9500
vt 0.0500 0.0500
vt 0.9500 0.0500
vt 0.9500 0.9500
vt 0.0500 0.9500
vt 0.0500 0.0500
vt 0.9500 0.0500
vt 0.9500 0.9500
vt 0.0500 0.9500
vt 0.0500 0.0500
vt 0.9500 0.0500
vt 0.9500 0.9500
vt 0.0500 0.9500
vt 0.0500 0.0500
vt 0.9500 0.0500
vt 0.9500 0.9500
vt 0.0500 0.9500
vt 0.0500 0.0500
vt 0.9500 0.0500
vt 0.9500 0.9500
vt 0.0500 0.9500
vt 0.0500 0.0500
vt 0.9500 0.0500
vt 0.9500 0.9500
vt 0.0500 0.9500
vt 0.0500 0.0500
vt 0.9500 0.0500
vt 0.9500 0.9500
vt 0.0500 0.9500
vt 0.0500 0.0500
vt 0.9500 0.0500
vt 0.9500 0.9500
vt 0.0500 0.9500
vt 0.0500 0.0500
vt 0.9500 0.0500
vt 0.9500 0.9500
vt 0.0500 0.9500
g shirt_front_L
usemtl fabric_outer
f 1/1 2/2 3/3 4/4
g shirt_front_R
usemtl fabric_outer
f 5/5 6/6 7/7 8/8
g shirt_back
usemtl fabric_outer
f 9/9 10/10 11/11 12/12
g inner_front
usemtl fabric_inner
f 13/13 14/14 15/15 16/16
g trouser_L
usemtl fabric_bottom
f 17/17 18/18 19/19 20/20
g trouser_R
usemtl fabric_bottom
f 21/21 22/22 23/23 24/24
g sleeve_L
usemtl fabric_outer
f 25/25 26/26 27/27 28/28
g sleeve_R
usemtl fabric_outer
f 29/29 30/30 31/31 32/32
g foldcap_L
usemtl accent
f 33/33 34/34 35/35 36/36
g foldcap_R
usemtl accent
f 37/37 38/38 39/39 40/40
g foldcap_facing_L
usemtl accent
f 41/41 42/42 43/43 44/44
g foldcap_facing_R
usemtl accent
f 45/45 46/46 47/47 48/48
g back_yoke
usemtl fabric_outer
f 49/49 50/50 51/51 52/52
