# Sidelock Column Set structural prototype
mtllib sidelock-column-set-prototype.mtl
o sidelock_column_set
g top_front
usemtl fabric_top
v -0.3000 0.0600 0.5500
v 0.3000 0.0600 0.5500
v 0.3000 0.0600 0.9500
v -0.3000 0.0600 0.9500
vt 0 0
vt 1 0
vt 1 1
vt 0 1
f 1/1 2/2 3/3 4/4
g top_back
usemtl fabric_top
v -0.3000 -0.0600 0.5500
v 0.3000 -0.0600 0.5500
v 0.3000 -0.0600 0.9500
v -0.3000 -0.0600 0.9500
vt 0 0
vt 1 0
vt 1 1
vt 0 1
f 5/5 6/6 7/7 8/8
g skirt_front
usemtl fabric_skirt
v -0.3400 0.0500 -0.4500
v 0.3400 0.0500 -0.4500
v 0.3400 0.0500 0.5000
v -0.3400 0.0500 0.5000
vt 0 0
vt 1 0
vt 1 1
vt 0 1
f 9/9 10/10 11/11 12/12
g skirt_back_L
usemtl fabric_skirt
v -0.3400 -0.0500 -0.4500
v -0.0100 -0.0500 -0.4500
v -0.0100 -0.0500 0.5000
v -0.3400 -0.0500 0.5000
vt 0 0
vt 1 0
vt 1 1
vt 0 1
f 13/13 14/14 15/15 16/16
g skirt_back_R
usemtl fabric_skirt
v 0.0100 -0.0500 -0.4500
v 0.3400 -0.0500 -0.4500
v 0.3400 -0.0500 0.5000
v 0.0100 -0.0500 0.5000
vt 0 0
vt 1 0
vt 1 1
vt 0 1
f 17/17 18/18 19/19 20/20
g waistband
usemtl fabric_skirt
v -0.3500 0.0400 0.4700
v 0.3500 0.0400 0.4700
v 0.3500 0.0400 0.5500
v -0.3500 0.0400 0.5500
vt 0 0
vt 1 0
vt 1 1
vt 0 1
f 21/21 22/22 23/23 24/24
g rear_slit_facing_L
usemtl trim
v -0.0350 -0.0700 -0.4500
v -0.0050 -0.0700 -0.4500
v -0.0050 -0.0700 -0.1200
v -0.0350 -0.0700 -0.1200
vt 0 0
vt 1 0
vt 1 1
vt 0 1
f 25/25 26/26 27/27 28/28
g rear_slit_facing_R
usemtl trim
v 0.0050 -0.0700 -0.4500
v 0.0350 -0.0700 -0.4500
v 0.0350 -0.0700 -0.1200
v 0.0050 -0.0700 -0.1200
vt 0 0
vt 1 0
vt 1 1
vt 0 1
f 29/29 30/30 31/31 32/32
g side_lock_L_A
usemtl accent_pleat
v -0.4800 0.0800 0.1200
v -0.3100 0.0800 0.1200
v -0.3100 0.0800 0.3400
v -0.4800 0.0800 0.3400
vt 0 0
vt 1 0
vt 1 1
vt 0 1
f 33/33 34/34 35/35 36/36
g side_lock_L_B
usemtl accent_pleat
v -0.5000 0.0900 -0.0200
v -0.3100 0.0900 -0.0200
v -0.3100 0.0900 0.2100
v -0.5000 0.0900 0.2100
vt 0 0
vt 1 0
vt 1 1
vt 0 1
f 37/37 38/38 39/39 40/40
g side_lock_L_C
usemtl accent_pleat
v -0.4700 0.1000 -0.1600
v -0.3100 0.1000 -0.1600
v -0.3100 0.1000 0.0800
v -0.4700 0.1000 0.0800
vt 0 0
vt 1 0
vt 1 1
vt 0 1
f 41/41 42/42 43/43 44/44
g side_lock_R_A
usemtl accent_pleat
v 0.3100 0.0800 0.1200
v 0.4800 0.0800 0.1200
v 0.4800 0.0800 0.3400
v 0.3100 0.0800 0.3400
vt 0 0
vt 1 0
vt 1 1
vt 0 1
f 45/45 46/46 47/47 48/48
g side_lock_R_B
usemtl accent_pleat
v 0.3100 0.0900 -0.0200
v 0.5000 0.0900 -0.0200
v 0.5000 0.0900 0.2100
v 0.3100 0.0900 0.2100
vt 0 0
vt 1 0
vt 1 1
vt 0 1
f 49/49 50/50 51/51 52/52
g side_lock_R_C
usemtl accent_pleat
v 0.3100 0.1000 -0.1600
v 0.4700 0.1000 -0.1600
v 0.4700 0.1000 0.0800
v 0.3100 0.1000 0.0800
vt 0 0
vt 1 0
vt 1 1
vt 0 1
f 53/53 54/54 55/55 56/56
