mtllib lumiere-ribbon-harness.mtl
v -0.525 0.000 0
v -0.275 0.000 0
v -0.275 0.200 0
v -0.525 0.200 0
v -0.175 0.000 0
v 0.075 0.000 0
v 0.075 0.200 0
v -0.175 0.200 0
v 0.175 0.000 0
v 0.425 0.000 0
v 0.425 0.200 0
v 0.175 0.200 0
v 0.525 0.000 0
v 0.775 0.000 0
v 0.775 0.200 0
v 0.525 0.200 0
v -0.525 0.300 0
v -0.275 0.300 0
v -0.275 0.500 0
v -0.525 0.500 0
v -0.175 0.300 0
v 0.075 0.300 0
v 0.075 0.500 0
v -0.175 0.500 0
v 0.175 0.300 0
v 0.425 0.300 0
v 0.425 0.500 0
v 0.175 0.500 0
v 0.525 0.300 0
v 0.775 0.300 0
v 0.775 0.500 0
v 0.525 0.500 0
v -0.525 0.600 0
v -0.275 0.600 0
v -0.275 0.800 0
v -0.525 0.800 0
v -0.175 0.600 0
v 0.075 0.600 0
v 0.075 0.800 0
v -0.175 0.800 0
v 0.175 0.600 0
v 0.425 0.600 0
v 0.425 0.800 0
v 0.175 0.800 0
v 0.525 0.600 0
v 0.775 0.600 0
v 0.775 0.800 0
v 0.525 0.800 0
v -0.525 0.900 0
v -0.275 0.900 0
v -0.275 1.100 0
v -0.525 1.100 0
v -0.175 0.900 0
v 0.075 0.900 0
v 0.075 1.100 0
v -0.175 1.100 0
v 0.175 0.900 0
v 0.425 0.900 0
v 0.425 1.100 0
v 0.175 1.100 0
v 0.525 0.900 0
v 0.775 0.900 0
v 0.775 1.100 0
v 0.525 1.100 0
vt 0 0
vt 1 0
vt 1 1
vt 0 1
vt 0 0
vt 1 0
vt 1 1
vt 0 1
vt 0 0
vt 1 0
vt 1 1
vt 0 1
vt 0 0
vt 1 0
vt 1 1
vt 0 1
vt 0 0
vt 1 0
vt 1 1
vt 0 1
vt 0 0
vt 1 0
vt 1 1
vt 0 1
vt 0 0
vt 1 0
vt 1 1
vt 0 1
vt 0 0
vt 1 0
vt 1 1
vt 0 1
vt 0 0
vt 1 0
vt 1 1
vt 0 1
vt 0 0
vt 1 0
vt 1 1
vt 0 1
vt 0 0
vt 1 0
vt 1 1
vt 0 1
vt 0 0
vt 1 0
vt 1 1
vt 0 1
vt 0 0
vt 1 0
vt 1 1
vt 0 1
vt 0 0
vt 1 0
vt 1 1
vt 0 1
vt 0 0
vt 1 0
vt 1 1
vt 0 1
vt 0 0
vt 1 0
vt 1 1
vt 0 1
o inner_front
g inner_front
usemtl MAT_Lumiere_Inner
f 1/1 2/2 3/3 4/4
o inner_back
g inner_back
usemtl MAT_Lumiere_Inner
f 5/5 6/6 7/7 8/8
o jacket_front_L
g jacket_front_L
usemtl MAT_Lumiere_Jacket
f 9/9 10/10 11/11 12/12
o jacket_front_R
g jacket_front_R
usemtl MAT_Lumiere_Jacket
f 13/13 14/14 15/15 16/16
o jacket_back
g jacket_back
usemtl MAT_Lumiere_Jacket
f 17/17 18/18 19/19 20/20
o sleeve_L
g sleeve_L
usemtl MAT_Lumiere_Jacket
f 21/21 22/22 23/23 24/24
o sleeve_R
g sleeve_R
usemtl MAT_Lumiere_Jacket
f 25/25 26/26 27/27 28/28
o skirt_front
g skirt_front
usemtl MAT_Lumiere_Skirt
f 29/29 30/30 31/31 32/32
o skirt_back
g skirt_back
usemtl MAT_Lumiere_Skirt
f 33/33 34/34 35/35 36/36
o harness_front_L
g harness_front_L
usemtl MAT_Lumiere_Harness
f 37/37 38/38 39/39 40/40
o harness_front_R
g harness_front_R
usemtl MAT_Lumiere_Harness
f 41/41 42/42 43/43 44/44
o harness_back_L
g harness_back_L
usemtl MAT_Lumiere_Harness
f 45/45 46/46 47/47 48/48
o harness_back_R
g harness_back_R
usemtl MAT_Lumiere_Harness
f 49/49 50/50 51/51 52/52
o harness_center_ring
g harness_center_ring
usemtl MAT_Lumiere_Harness
f 53/53 54/54 55/55 56/56
o side_ribbon_L
g side_ribbon_L
usemtl MAT_Lumiere_Ribbon
f 57/57 58/58 59/59 60/60
o side_ribbon_R
g side_ribbon_R
usemtl MAT_Lumiere_Ribbon
f 61/61 62/62 63/63 64/64
