mtllib latchfold-wrap-shirt-set-prototype.mtl
o LatchfoldWrapShirtSetPrototype
g wrap_front_L
usemtl fabric_outer
v -1.2900 0.0000 1.6400
v -0.9100 0.0000 1.6400
v -0.9100 0.0000 1.9600
v -1.2900 0.0000 1.9600
vt 0.0000 0.0000
vt 0.1800 0.0000
vt 0.1800 0.1400
vt 0.0000 0.1400
f 1/1 2/2 3/3 4/4
g wrap_front_R
usemtl fabric_outer
v -0.7400 0.0150 1.6400
v -0.3600 0.0150 1.6400
v -0.3600 0.0150 1.9600
v -0.7400 0.0150 1.9600
vt 0.2400 0.0000
vt 0.4200 0.0000
vt 0.4200 0.1400
vt 0.2400 0.1400
f 5/5 6/6 7/7 8/8
g shirt_back
usemtl fabric_outer
v -0.1900 0.0300 1.6400
v 0.1900 0.0300 1.6400
v 0.1900 0.0300 1.9600
v -0.1900 0.0300 1.9600
vt 0.4800 0.0000
vt 0.6600 0.0000
vt 0.6600 0.1400
vt 0.4800 0.1400
f 9/9 10/10 11/11 12/12
g sleeve_L
usemtl fabric_outer
v 0.3600 0.0000 1.6400
v 0.7400 0.0000 1.6400
v 0.7400 0.0000 1.9600
v 0.3600 0.0000 1.9600
vt 0.7200 0.0000
vt 0.9000 0.0000
vt 0.9000 0.1400
vt 0.7200 0.1400
f 13/13 14/14 15/15 16/16
g sleeve_R
usemtl fabric_outer
v 0.9100 0.0150 1.6400
v 1.2900 0.0150 1.6400
v 1.2900 0.0150 1.9600
v 0.9100 0.0150 1.9600
vt 0.0000 0.1900
vt 0.1800 0.1900
vt 0.1800 0.3300
vt 0.0000 0.3300
f 17/17 18/18 19/19 20/20
g inner_front
usemtl fabric_inner
v -1.2900 0.0300 1.1600
v -0.9100 0.0300 1.1600
v -0.9100 0.0300 1.4800
v -1.2900 0.0300 1.4800
vt 0.2400 0.1900
vt 0.4200 0.1900
vt 0.4200 0.3300
vt 0.2400 0.3300
f 21/21 22/22 23/23 24/24
g inner_back
usemtl fabric_inner
v -0.7400 0.0000 1.1600
v -0.3600 0.0000 1.1600
v -0.3600 0.0000 1.4800
v -0.7400 0.0000 1.4800
vt 0.4800 0.1900
vt 0.6600 0.1900
vt 0.6600 0.3300
vt 0.4800 0.3300
f 25/25 26/26 27/27 28/28
g trouser_front_L
usemtl fabric_bottom
v -0.1900 0.0150 1.1600
v 0.1900 0.0150 1.1600
v 0.1900 0.0150 1.4800
v -0.1900 0.0150 1.4800
vt 0.7200 0.1900
vt 0.9000 0.1900
vt 0.9000 0.3300
vt 0.7200 0.3300
f 29/29 30/30 31/31 32/32
g trouser_front_R
usemtl fabric_bottom
v 0.3600 0.0300 1.1600
v 0.7400 0.0300 1.1600
v 0.7400 0.0300 1.4800
v 0.3600 0.0300 1.4800
vt 0.0000 0.3800
vt 0.1800 0.3800
vt 0.1800 0.5200
vt 0.0000 0.5200
f 33/33 34/34 35/35 36/36
g trouser_back_L
usemtl fabric_bottom
v 0.9100 0.0000 1.1600
v 1.2900 0.0000 1.1600
v 1.2900 0.0000 1.4800
v 0.9100 0.0000 1.4800
vt 0.2400 0.3800
vt 0.4200 0.3800
vt 0.4200 0.5200
vt 0.2400 0.5200
f 37/37 38/38 39/39 40/40
g trouser_back_R
usemtl fabric_bottom
v -1.2900 0.0150 0.6800
v -0.9100 0.0150 0.6800
v -0.9100 0.0150 1.0000
v -1.2900 0.0150 1.0000
vt 0.4800 0.3800
vt 0.6600 0.3800
vt 0.6600 0.5200
vt 0.4800 0.5200
f 41/41 42/42 43/43 44/44
g waistband
usemtl fabric_bottom
v -0.7400 0.0300 0.6800
v -0.3600 0.0300 0.6800
v -0.3600 0.0300 1.0000
v -0.7400 0.0300 1.0000
vt 0.7200 0.3800
vt 0.9000 0.3800
vt 0.9000 0.5200
vt 0.7200 0.5200
f 45/45 46/46 47/47 48/48
g back_yoke
usemtl accent
v -0.1900 0.0000 0.6800
v 0.1900 0.0000 0.6800
v 0.1900 0.0000 1.0000
v -0.1900 0.0000 1.0000
vt 0.0000 0.5700
vt 0.1800 0.5700
vt 0.1800 0.7100
vt 0.0000 0.7100
f 49/49 50/50 51/51 52/52
g latch_A
usemtl accent
v 0.4100 0.0150 0.7500
v 0.6900 0.0150 0.7500
v 0.6900 0.0150 0.9300
v 0.4100 0.0150 0.9300
vt 0.2400 0.5700
vt 0.4200 0.5700
vt 0.4200 0.7100
vt 0.2400 0.7100
f 53/53 54/54 55/55 56/56
g latch_B
usemtl accent
v 0.9600 0.0300 0.7500
v 1.2400 0.0300 0.7500
v 1.2400 0.0300 0.9300
v 0.9600 0.0300 0.9300
vt 0.4800 0.5700
vt 0.6600 0.5700
vt 0.6600 0.7100
vt 0.4800 0.7100
f 57/57 58/58 59/59 60/60
g latch_C
usemtl accent
v -1.2400 0.0000 0.2700
v -0.9600 0.0000 0.2700
v -0.9600 0.0000 0.4500
v -1.2400 0.0000 0.4500
vt 0.7200 0.5700
vt 0.9000 0.5700
vt 0.9000 0.7100
vt 0.7200 0.7100
f 61/61 62/62 63/63 64/64
g latch_facing_A
usemtl accent
v -0.6900 0.0150 0.2700
v -0.4100 0.0150 0.2700
v -0.4100 0.0150 0.4500
v -0.6900 0.0150 0.4500
vt 0.0000 0.7600
vt 0.1800 0.7600
vt 0.1800 0.9000
vt 0.0000 0.9000
f 65/65 66/66 67/67 68/68
g latch_facing_B
usemtl accent
v -0.1400 0.0300 0.2700
v 0.1400 0.0300 0.2700
v 0.1400 0.0300 0.4500
v -0.1400 0.0300 0.4500
vt 0.2400 0.7600
vt 0.4200 0.7600
vt 0.4200 0.9000
vt 0.2400 0.9000
f 69/69 70/70 71/71 72/72
g latch_facing_C
usemtl accent
v 0.4100 0.0000 0.2700
v 0.6900 0.0000 0.2700
v 0.6900 0.0000 0.4500
v 0.4100 0.0000 0.4500
vt 0.4800 0.7600
vt 0.6600 0.7600
vt 0.6600 0.9000
vt 0.4800 0.9000
f 73/73 74/74 75/75 76/76
