mtllib helix-yoke-jumpsuit-set-prototype.mtl
v 0 0 0
v 1 0 0
v 1 1 0
v 0 1 0
v 1.3 0 .02
v 2.3 0 .02
v 2.3 1 .02
v 1.3 1 .02
v 2.6 0 0
v 3.6 0 0
v 3.6 1 0
v 2.6 1 0
v 3.9 0 .02
v 4.9 0 .02
v 4.9 1 .02
v 3.9 1 .02
v 0 1.3 0
v 1 1.3 0
v 1 2.3 0
v 0 2.3 0
v 1.3 1.3 .02
v 2.3 1.3 .02
v 2.3 2.3 .02
v 1.3 2.3 .02
v 2.6 1.3 0
v 3.6 1.3 0
v 3.6 2.3 0
v 2.6 2.3 0
v 3.9 1.3 .02
v 4.9 1.3 .02
v 4.9 2.3 .02
v 3.9 2.3 .02
v 0 2.6 0
v 1 2.6 0
v 1 3.6 0
v 0 3.6 0
v 1.3 2.6 .02
v 2.3 2.6 .02
v 2.3 3.6 .02
v 1.3 3.6 .02
v 2.6 2.6 0
v 3.6 2.6 0
v 3.6 3.6 0
v 2.6 3.6 0
v 3.9 2.6 .02
v 4.9 2.6 .02
v 4.9 3.6 .02
v 3.9 3.6 .02
vt 0 0
vt 1 0
vt 1 1
vt 0 1
vt 0 0
vt 1 0
vt 1 1
vt 0 1
vt 0 0
vt 1 0
vt 1 1
vt 0 1
vt 0 0
vt 1 0
vt 1 1
vt 0 1
vt 0 0
vt 1 0
vt 1 1
vt 0 1
vt 0 0
vt 1 0
vt 1 1
vt 0 1
vt 0 0
vt 1 0
vt 1 1
vt 0 1
vt 0 0
vt 1 0
vt 1 1
vt 0 1
vt 0 0
vt 1 0
vt 1 1
vt 0 1
vt 0 0
vt 1 0
vt 1 1
vt 0 1
vt 0 0
vt 1 0
vt 1 1
vt 0 1
vt 0 0
vt 1 0
vt 1 1
vt 0 1
g jumpsuit_front_L
usemtl fabric_bottom
f 1/1 2/2 3/3 4/4
g jumpsuit_front_R
usemtl fabric_bottom
f 5/5 6/6 7/7 8/8
g jumpsuit_back_L
usemtl fabric_bottom
f 9/9 10/10 11/11 12/12
g jumpsuit_back_R
usemtl fabric_bottom
f 13/13 14/14 15/15 16/16
g waistband_front
usemtl fabric_bottom
f 17/17 18/18 19/19 20/20
g waistband_back
usemtl fabric_bottom
f 21/21 22/22 23/23 24/24
g helix_yoke_outer
usemtl accent
f 25/25 26/26 27/27 28/28
g helix_yoke_inner
usemtl accent
f 29/29 30/30 31/31 32/32
g helix_facing_outer
usemtl accent
f 33/33 34/34 35/35 36/36
g helix_facing_inner
usemtl accent
f 37/37 38/38 39/39 40/40
g modesty_insert
usemtl fabric_outer
f 41/41 42/42 43/43 44/44
g back_yoke
usemtl fabric_outer
f 45/45 46/46 47/47 48/48
