# Prism Collar Cocoon Dress Set prototype checkpoint
# Panel-first geometry for downstream Blender import/fitting; not yet rigged or avatar-fitted.
mtllib prism-collar-cocoon.mtl

# 48 vertices: 12 named panel groups x 4 verts
v -0.180 -0.095 1.180
v  0.180 -0.095 1.180
v  0.155 -0.080 0.830
v -0.155 -0.080 0.830
v -0.180  0.095 1.180
v -0.155  0.080 0.830
v  0.155  0.080 0.830
v  0.180  0.095 1.180
v -0.210 -0.075 0.830
v  0.210 -0.075 0.830
v  0.270 -0.060 0.480
v -0.270 -0.060 0.480
v -0.210  0.075 0.830
v -0.270  0.060 0.480
v  0.270  0.060 0.480
v  0.210  0.075 0.830
v -0.255 -0.078 0.805
v -0.150 -0.078 0.805
v -0.185 -0.065 0.510
v -0.285 -0.065 0.560
v  0.150 -0.078 0.805
v  0.255 -0.078 0.805
v  0.285 -0.065 0.560
v  0.185 -0.065 0.510
v -0.175 -0.120 1.205
v -0.020 -0.135 1.245
v -0.055 -0.155 1.115
v -0.215 -0.135 1.105
v  0.020 -0.135 1.245
v  0.175 -0.120 1.205
v  0.215 -0.135 1.105
v  0.055 -0.155 1.115
v -0.070 -0.145 1.250
v  0.070 -0.145 1.250
v  0.115 -0.165 1.175
v  0.000 -0.185 1.105
v -0.220  0.105 1.110
v -0.070  0.120 1.205
v -0.035  0.145 1.100
v -0.195  0.135 1.035
v -0.165 -0.090 0.850
v  0.165 -0.090 0.850
v  0.165 -0.088 0.815
v -0.165 -0.088 0.815
v -0.025 -0.100 0.805
v  0.025 -0.100 0.805
v  0.020 -0.092 0.520
v -0.020 -0.092 0.520

vt 0.00 1.00
vt 1.00 1.00
vt 1.00 0.00
vt 0.00 0.00
vt 0.00 1.00
vt 1.00 1.00
vt 1.00 0.00
vt 0.00 0.00
vt 0.00 1.00
vt 1.00 1.00
vt 1.00 0.00
vt 0.00 0.00
vt 0.00 1.00
vt 1.00 1.00
vt 1.00 0.00
vt 0.00 0.00
vt 0.00 1.00
vt 1.00 1.00
vt 1.00 0.00
vt 0.00 0.00
vt 0.00 1.00
vt 1.00 1.00
vt 1.00 0.00
vt 0.00 0.00
vt 0.00 1.00
vt 1.00 1.00
vt 1.00 0.00
vt 0.00 0.00
vt 0.00 1.00
vt 1.00 1.00
vt 1.00 0.00
vt 0.00 0.00
vt 0.00 1.00
vt 1.00 1.00
vt 1.00 0.00
vt 0.00 0.00
vt 0.00 1.00
vt 1.00 1.00
vt 1.00 0.00
vt 0.00 0.00
vt 0.00 1.00
vt 1.00 1.00
vt 1.00 0.00
vt 0.00 0.00
vt 0.00 1.00
vt 1.00 1.00
vt 1.00 0.00
vt 0.00 0.00

g bodice_front
usemtl MAT_Prism_Graphite
f 1/1 2/2 3/3 4/4

g bodice_back
usemtl MAT_Prism_Graphite
f 5/5 6/6 7/7 8/8

g skirt_front
usemtl MAT_Prism_Ivory
f 9/9 10/10 11/11 12/12

g skirt_back
usemtl MAT_Prism_Ivory
f 13/13 14/14 15/15 16/16

g box_pleat_L
usemtl MAT_Prism_Mist
f 17/17 18/18 19/19 20/20

g box_pleat_R
usemtl MAT_Prism_Mist
f 21/21 22/22 23/23 24/24

g collar_front_L
usemtl MAT_Prism_Mist
f 25/25 26/26 27/27 28/28

g collar_front_R
usemtl MAT_Prism_Ivory
f 29/29 30/30 31/31 32/32

g collar_center
usemtl MAT_Prism_Ivory
f 33/33 34/34 35/35 36/36

g collar_side_L
usemtl MAT_Prism_Ivory
f 37/37 38/38 39/39 40/40

g waist_facing
usemtl MAT_Prism_Graphite
f 41/41 42/42 43/43 44/44

g center_accent
usemtl MAT_Prism_Plum
f 45/45 46/46 47/47 48/48
