mtllib pivot-hinge-dolman.mtl
o dolman_front_L
g dolman_front_L
usemtl MAT_Outer
v -0.3400 -0.0400 1.3800
v -0.0200 -0.0400 1.3800
v -0.0500 -0.0400 1.0500
v -0.3900 -0.0400 1.0500
vt 0.0000 0.0000
vt 1.0000 0.0000
vt 1.0000 1.0000
vt 0.0000 1.0000
f 1/1 2/2 3/3 4/4
o dolman_front_R
g dolman_front_R
usemtl MAT_Outer
v 0.0200 -0.0400 1.3800
v 0.3400 -0.0400 1.3800
v 0.3900 -0.0400 1.0500
v 0.0500 -0.0400 1.0500
vt 0.0000 0.0000
vt 1.0000 0.0000
vt 1.0000 1.0000
vt 0.0000 1.0000
f 5/5 6/6 7/7 8/8
o dolman_back
g dolman_back
usemtl MAT_Outer
v -0.3600 0.0600 1.3600
v 0.3600 0.0600 1.3600
v 0.4000 0.0600 1.0400
v -0.4000 0.0600 1.0400
vt 0.0000 0.0000
vt 1.0000 0.0000
vt 1.0000 1.0000
vt 0.0000 1.0000
f 9/9 10/10 11/11 12/12
o inner_front
g inner_front
usemtl MAT_Inner
v -0.2400 -0.0550 1.3400
v 0.2400 -0.0550 1.3400
v 0.2200 -0.0550 1.0800
v -0.2200 -0.0550 1.0800
vt 0.0000 0.0000
vt 1.0000 0.0000
vt 1.0000 1.0000
vt 0.0000 1.0000
f 13/13 14/14 15/15 16/16
o inner_back
g inner_back
usemtl MAT_Inner
v -0.2400 0.0450 1.3400
v 0.2400 0.0450 1.3400
v 0.2200 0.0450 1.0800
v -0.2200 0.0450 1.0800
vt 0.0000 0.0000
vt 1.0000 0.0000
vt 1.0000 1.0000
vt 0.0000 1.0000
f 17/17 18/18 19/19 20/20
o trouser_front_L
g trouser_front_L
usemtl MAT_Bottoms
v -0.3100 -0.0350 1.0400
v -0.0200 -0.0350 1.0400
v -0.0800 -0.0350 0.2500
v -0.2500 -0.0350 0.2500
vt 0.0000 0.0000
vt 1.0000 0.0000
vt 1.0000 1.0000
vt 0.0000 1.0000
f 21/21 22/22 23/23 24/24
o trouser_front_R
g trouser_front_R
usemtl MAT_Bottoms
v 0.0200 -0.0350 1.0400
v 0.3100 -0.0350 1.0400
v 0.2500 -0.0350 0.2500
v 0.0800 -0.0350 0.2500
vt 0.0000 0.0000
vt 1.0000 0.0000
vt 1.0000 1.0000
vt 0.0000 1.0000
f 25/25 26/26 27/27 28/28
o trouser_back_L
g trouser_back_L
usemtl MAT_Bottoms
v -0.3100 0.0550 1.0400
v -0.0200 0.0550 1.0400
v -0.0800 0.0550 0.2500
v -0.2500 0.0550 0.2500
vt 0.0000 0.0000
vt 1.0000 0.0000
vt 1.0000 1.0000
vt 0.0000 1.0000
f 29/29 30/30 31/31 32/32
o trouser_back_R
g trouser_back_R
usemtl MAT_Bottoms
v 0.0200 0.0550 1.0400
v 0.3100 0.0550 1.0400
v 0.2500 0.0550 0.2500
v 0.0800 0.0550 0.2500
vt 0.0000 0.0000
vt 1.0000 0.0000
vt 1.0000 1.0000
vt 0.0000 1.0000
f 33/33 34/34 35/35 36/36
o waistband
g waistband
usemtl MAT_Bottoms
v -0.3200 -0.0500 1.0600
v 0.3200 -0.0500 1.0600
v 0.3200 -0.0500 1.0000
v -0.3200 -0.0500 1.0000
vt 0.0000 0.0000
vt 1.0000 0.0000
vt 1.0000 1.0000
vt 0.0000 1.0000
f 37/37 38/38 39/39 40/40
o hinge_gusset_L
g hinge_gusset_L
usemtl MAT_Hinge
v -0.5600 -0.0400 1.2200
v -0.3400 -0.0400 1.2000
v -0.3500 -0.0400 1.1000
v -0.5700 -0.0400 1.1200
vt 0.0000 0.0000
vt 1.0000 0.0000
vt 1.0000 1.0000
vt 0.0000 1.0000
f 41/41 42/42 43/43 44/44
o hinge_gusset_R
g hinge_gusset_R
usemtl MAT_Hinge
v 0.3400 -0.0400 1.2000
v 0.5600 -0.0400 1.2200
v 0.5700 -0.0400 1.1200
v 0.3500 -0.0400 1.1000
vt 0.0000 0.0000
vt 1.0000 0.0000
vt 1.0000 1.0000
vt 0.0000 1.0000
f 45/45 46/46 47/47 48/48
o hinge_facing_L
g hinge_facing_L
usemtl MAT_Hinge
v -0.5500 0.0100 1.2100
v -0.3500 0.0100 1.1900
v -0.3600 0.0100 1.1100
v -0.5600 0.0100 1.1300
vt 0.0000 0.0000
vt 1.0000 0.0000
vt 1.0000 1.0000
vt 0.0000 1.0000
f 49/49 50/50 51/51 52/52
o hinge_facing_R
g hinge_facing_R
usemtl MAT_Hinge
v 0.3500 0.0100 1.1900
v 0.5500 0.0100 1.2100
v 0.5600 0.0100 1.1300
v 0.3600 0.0100 1.1100
vt 0.0000 0.0000
vt 1.0000 0.0000
vt 1.0000 1.0000
vt 0.0000 1.0000
f 53/53 54/54 55/55 56/56
o cuff_L
g cuff_L
usemtl MAT_Outer
v -0.6200 -0.0350 1.1300
v -0.5500 -0.0350 1.1300
v -0.5500 -0.0350 1.0400
v -0.6200 -0.0350 1.0400
vt 0.0000 0.0000
vt 1.0000 0.0000
vt 1.0000 1.0000
vt 0.0000 1.0000
f 57/57 58/58 59/59 60/60
o cuff_R
g cuff_R
usemtl MAT_Outer
v 0.5500 -0.0350 1.1300
v 0.6200 -0.0350 1.1300
v 0.6200 -0.0350 1.0400
v 0.5500 -0.0350 1.0400
vt 0.0000 0.0000
vt 1.0000 0.0000
vt 1.0000 1.0000
vt 0.0000 1.0000
f 61/61 62/62 63/63 64/64
