mtllib lunar-sanctum-prototype.mtl
# Lunar Sanctum Wardress checkpoint geometry
# 28 vertices / 28 UVs / 7 named quads
v -0.30 0.00 1.20
v 0.30 0.00 1.20
v 0.26 0.00 1.75
v -0.26 0.00 1.75
v -0.58 0.02 0.55
v -0.08 0.02 0.55
v -0.08 0.02 1.20
v -0.42 0.02 1.20
v 0.08 0.02 0.55
v 0.58 0.02 0.55
v 0.42 0.02 1.20
v 0.08 0.02 1.20
v -0.38 -0.02 0.30
v 0.38 -0.02 0.30
v 0.28 -0.02 0.62
v -0.28 -0.02 0.62
v -0.62 0.00 1.10
v -0.38 0.00 1.10
v -0.34 0.00 1.52
v -0.58 0.00 1.52
v 0.38 0.00 1.10
v 0.62 0.00 1.10
v 0.58 0.00 1.52
v 0.34 0.00 1.52
v -0.12 -0.08 1.18
v 0.12 -0.08 1.18
v 0.12 -0.08 1.42
v -0.12 -0.08 1.42
vt 0 0
vt 1 0
vt 1 1
vt 0 1
vt 0 0
vt 1 0
vt 1 1
vt 0 1
vt 0 0
vt 1 0
vt 1 1
vt 0 1
vt 0 0
vt 1 0
vt 1 1
vt 0 1
vt 0 0
vt 1 0
vt 1 1
vt 0 1
vt 0 0
vt 1 0
vt 1 1
vt 0 1
vt 0 0
vt 1 0
vt 1 1
vt 0 1
usemtl moon_white
g bodice_core
f 1/1 2/2 3/3 4/4
usemtl lavender
g overskirt_leaf_L
f 5/5 6/6 7/7 8/8
g overskirt_leaf_R
f 9/9 10/10 11/11 12/12
usemtl lace
g underskirt
f 13/13 14/14 15/15 16/16
usemtl night_navy
g bell_sleeve_L
f 17/17 18/18 19/19 20/20
g bell_sleeve_R
f 21/21 22/22 23/23 24/24
usemtl metal
g crescent_back_charm
f 25/25 26/26 27/27 28/28
