mtllib structural.mtl
o ApertureSleeveJacketSet
v 0.00000 0.02000 0.00000
v 0.25000 0.02000 0.00000
v 0.25000 0.02000 0.35000
v 0.00000 0.02000 0.35000
v 0.35000 0.02000 0.00000
v 0.60000 0.02000 0.00000
v 0.60000 0.02000 0.35000
v 0.35000 0.02000 0.35000
v 0.70000 0.02000 0.00000
v 0.95000 0.02000 0.00000
v 0.95000 0.02000 0.35000
v 0.70000 0.02000 0.35000
v 1.05000 0.02000 0.00000
v 1.30000 0.02000 0.00000
v 1.30000 0.02000 0.35000
v 1.05000 0.02000 0.35000
v 1.40000 0.02000 0.00000
v 1.65000 0.02000 0.00000
v 1.65000 0.02000 0.35000
v 1.40000 0.02000 0.35000
v 1.75000 0.02000 0.00000
v 2.00000 0.02000 0.00000
v 2.00000 0.02000 0.35000
v 1.75000 0.02000 0.35000
v 2.10000 0.02000 0.00000
v 2.35000 0.02000 0.00000
v 2.35000 0.02000 0.35000
v 2.10000 0.02000 0.35000
v 0.00000 0.02000 0.50000
v 0.25000 0.02000 0.50000
v 0.25000 0.02000 0.85000
v 0.00000 0.02000 0.85000
v 0.35000 0.02000 0.50000
v 0.60000 0.02000 0.50000
v 0.60000 0.02000 0.85000
v 0.35000 0.02000 0.85000
v 0.70000 0.02000 0.50000
v 0.95000 0.02000 0.50000
v 0.95000 0.02000 0.85000
v 0.70000 0.02000 0.85000
v 1.05000 0.02000 0.50000
v 1.30000 0.02000 0.50000
v 1.30000 0.02000 0.85000
v 1.05000 0.02000 0.85000
v 1.40000 0.02000 0.50000
v 1.65000 0.02000 0.50000
v 1.65000 0.02000 0.85000
v 1.40000 0.02000 0.85000
v 1.75000 0.02000 0.50000
v 2.00000 0.02000 0.50000
v 2.00000 0.02000 0.85000
v 1.75000 0.02000 0.85000
v 2.10000 0.02000 0.50000
v 2.35000 0.02000 0.50000
v 2.35000 0.02000 0.85000
v 2.10000 0.02000 0.85000
v -0.72000 0.03000 0.07000
v -0.38000 0.03000 0.07000
v -0.47000 0.03000 0.18000
v -0.63000 0.03000 0.18000
v -0.72000 0.03000 0.42000
v -0.63000 0.03000 0.42000
v -0.47000 0.03000 0.53000
v -0.38000 0.03000 0.53000
v -0.72000 0.03000 0.18000
v -0.63000 0.03000 0.18000
v -0.63000 0.03000 0.42000
v -0.72000 0.03000 0.42000
v -0.47000 0.03000 0.18000
v -0.38000 0.03000 0.18000
v -0.38000 0.03000 0.42000
v -0.47000 0.03000 0.42000
v 2.83000 0.03000 0.07000
v 3.17000 0.03000 0.07000
v 3.08000 0.03000 0.18000
v 2.92000 0.03000 0.18000
v 2.83000 0.03000 0.42000
v 2.92000 0.03000 0.42000
v 3.08000 0.03000 0.53000
v 3.17000 0.03000 0.53000
v 2.83000 0.03000 0.18000
v 2.92000 0.03000 0.18000
v 2.92000 0.03000 0.42000
v 2.83000 0.03000 0.42000
v 3.08000 0.03000 0.18000
v 3.17000 0.03000 0.18000
v 3.17000 0.03000 0.42000
v 3.08000 0.03000 0.42000
v -0.68000 0.04500 0.13000
v -0.42000 0.04500 0.13000
v -0.47000 0.04500 0.18000
v -0.63000 0.04500 0.18000
v -0.68000 0.04500 0.42000
v -0.63000 0.04500 0.42000
v -0.47000 0.04500 0.47000
v -0.42000 0.04500 0.47000
v -0.68000 0.04500 0.18000
v -0.63000 0.04500 0.18000
v -0.63000 0.04500 0.42000
v -0.68000 0.04500 0.42000
v -0.47000 0.04500 0.18000
v -0.42000 0.04500 0.18000
v -0.42000 0.04500 0.42000
v -0.47000 0.04500 0.42000
v 2.87000 0.04500 0.13000
v 3.13000 0.04500 0.13000
v 3.08000 0.04500 0.18000
v 2.92000 0.04500 0.18000
v 2.87000 0.04500 0.42000
v 2.92000 0.04500 0.42000
v 3.08000 0.04500 0.47000
v 3.13000 0.04500 0.47000
v 2.87000 0.04500 0.18000
v 2.92000 0.04500 0.18000
v 2.92000 0.04500 0.42000
v 2.87000 0.04500 0.42000
v 3.08000 0.04500 0.18000
v 3.13000 0.04500 0.18000
v 3.13000 0.04500 0.42000
v 3.08000 0.04500 0.42000
v -0.66000 0.05500 0.15000
v -0.44000 0.05500 0.15000
v -0.46500 0.05500 0.17500
v -0.63500 0.05500 0.17500
v -0.66000 0.05500 0.42500
v -0.63500 0.05500 0.42500
v -0.46500 0.05500 0.45000
v -0.44000 0.05500 0.45000
v -0.66000 0.05500 0.17500
v -0.63500 0.05500 0.17500
v -0.63500 0.05500 0.42500
v -0.66000 0.05500 0.42500
v -0.46500 0.05500 0.17500
v -0.44000 0.05500 0.17500
v -0.44000 0.05500 0.42500
v -0.46500 0.05500 0.42500
v 2.89000 0.05500 0.15000
v 3.11000 0.05500 0.15000
v 3.08500 0.05500 0.17500
v 2.91500 0.05500 0.17500
v 2.89000 0.05500 0.42500
v 2.91500 0.05500 0.42500
v 3.08500 0.05500 0.45000
v 3.11000 0.05500 0.45000
v 2.89000 0.05500 0.17500
v 2.91500 0.05500 0.17500
v 2.91500 0.05500 0.42500
v 2.89000 0.05500 0.42500
v 3.08500 0.05500 0.17500
v 3.11000 0.05500 0.17500
v 3.11000 0.05500 0.42500
v 3.08500 0.05500 0.42500
vt 0.00000 0.00000
vt 1.00000 0.00000
vt 1.00000 1.00000
vt 0.00000 1.00000
vt 0.00000 0.00000
vt 1.00000 0.00000
vt 1.00000 1.00000
vt 0.00000 1.00000
vt 0.00000 0.00000
vt 1.00000 0.00000
vt 1.00000 1.00000
vt 0.00000 1.00000
vt 0.00000 0.00000
vt 1.00000 0.00000
vt 1.00000 1.00000
vt 0.00000 1.00000
vt 0.00000 0.00000
vt 1.00000 0.00000
vt 1.00000 1.00000
vt 0.00000 1.00000
vt 0.00000 0.00000
vt 1.00000 0.00000
vt 1.00000 1.00000
vt 0.00000 1.00000
vt 0.00000 0.00000
vt 1.00000 0.00000
vt 1.00000 1.00000
vt 0.00000 1.00000
vt 0.00000 0.00000
vt 1.00000 0.00000
vt 1.00000 1.00000
vt 0.00000 1.00000
vt 0.00000 0.00000
vt 1.00000 0.00000
vt 1.00000 1.00000
vt 0.00000 1.00000
vt 0.00000 0.00000
vt 1.00000 0.00000
vt 1.00000 1.00000
vt 0.00000 1.00000
vt 0.00000 0.00000
vt 1.00000 0.00000
vt 1.00000 1.00000
vt 0.00000 1.00000
vt 0.00000 0.00000
vt 1.00000 0.00000
vt 1.00000 1.00000
vt 0.00000 1.00000
vt 0.00000 0.00000
vt 1.00000 0.00000
vt 1.00000 1.00000
vt 0.00000 1.00000
vt 0.00000 0.00000
vt 1.00000 0.00000
vt 1.00000 1.00000
vt 0.00000 1.00000
vt 0.00000 0.00000
vt 1.00000 0.00000
vt 1.00000 1.00000
vt 0.00000 1.00000
vt 0.00000 0.00000
vt 1.00000 0.00000
vt 1.00000 1.00000
vt 0.00000 1.00000
vt 0.00000 0.00000
vt 1.00000 0.00000
vt 1.00000 1.00000
vt 0.00000 1.00000
vt 0.00000 0.00000
vt 1.00000 0.00000
vt 1.00000 1.00000
vt 0.00000 1.00000
vt 0.00000 0.00000
vt 1.00000 0.00000
vt 1.00000 1.00000
vt 0.00000 1.00000
vt 0.00000 0.00000
vt 1.00000 0.00000
vt 1.00000 1.00000
vt 0.00000 1.00000
vt 0.00000 0.00000
vt 1.00000 0.00000
vt 1.00000 1.00000
vt 0.00000 1.00000
vt 0.00000 0.00000
vt 1.00000 0.00000
vt 1.00000 1.00000
vt 0.00000 1.00000
vt 0.00000 0.00000
vt 1.00000 0.00000
vt 1.00000 1.00000
vt 0.00000 1.00000
vt 0.00000 0.00000
vt 1.00000 0.00000
vt 1.00000 1.00000
vt 0.00000 1.00000
vt 0.00000 0.00000
vt 1.00000 0.00000
vt 1.00000 1.00000
vt 0.00000 1.00000
vt 0.00000 0.00000
vt 1.00000 0.00000
vt 1.00000 1.00000
vt 0.00000 1.00000
vt 0.00000 0.00000
vt 1.00000 0.00000
vt 1.00000 1.00000
vt 0.00000 1.00000
vt 0.00000 0.00000
vt 1.00000 0.00000
vt 1.00000 1.00000
vt 0.00000 1.00000
vt 0.00000 0.00000
vt 1.00000 0.00000
vt 1.00000 1.00000
vt 0.00000 1.00000
vt 0.00000 0.00000
vt 1.00000 0.00000
vt 1.00000 1.00000
vt 0.00000 1.00000
vt 0.00000 0.00000
vt 1.00000 0.00000
vt 1.00000 1.00000
vt 0.00000 1.00000
vt 0.00000 0.00000
vt 1.00000 0.00000
vt 1.00000 1.00000
vt 0.00000 1.00000
vt 0.00000 0.00000
vt 1.00000 0.00000
vt 1.00000 1.00000
vt 0.00000 1.00000
vt 0.00000 0.00000
vt 1.00000 0.00000
vt 1.00000 1.00000
vt 0.00000 1.00000
vt 0.00000 0.00000
vt 1.00000 0.00000
vt 1.00000 1.00000
vt 0.00000 1.00000
g jacket_front_L
usemtl MAT_Shell
f 1/1 2/2 3/3 4/4
g jacket_front_R
usemtl MAT_Shell
f 5/5 6/6 7/7 8/8
g jacket_back
usemtl MAT_Shell
f 9/9 10/10 11/11 12/12
g inner_front
usemtl MAT_Inner
f 13/13 14/14 15/15 16/16
g inner_back
usemtl MAT_Inner
f 17/17 18/18 19/19 20/20
g trouser_front_L
usemtl MAT_Bottoms
f 21/21 22/22 23/23 24/24
g trouser_front_R
usemtl MAT_Bottoms
f 25/25 26/26 27/27 28/28
g trouser_back_L
usemtl MAT_Bottoms
f 29/29 30/30 31/31 32/32
g trouser_back_R
usemtl MAT_Bottoms
f 33/33 34/34 35/35 36/36
g waistband_outer
usemtl MAT_Bottoms
f 37/37 38/38 39/39 40/40
g waistband_inner
usemtl MAT_Inner
f 41/41 42/42 43/43 44/44
g back_yoke
usemtl MAT_Shell
f 45/45 46/46 47/47 48/48
g cuff_L
usemtl MAT_Shell
f 49/49 50/50 51/51 52/52
g cuff_R
usemtl MAT_Shell
f 53/53 54/54 55/55 56/56
g sleeve_L
usemtl MAT_Shell
f 57/57 58/58 59/59 60/60
f 61/61 62/62 63/63 64/64
f 65/65 66/66 67/67 68/68
f 69/69 70/70 71/71 72/72
g sleeve_R
usemtl MAT_Shell
f 73/73 74/74 75/75 76/76
f 77/77 78/78 79/79 80/80
f 81/81 82/82 83/83 84/84
f 85/85 86/86 87/87 88/88
g aperture_ring_L
usemtl MAT_Hero
f 89/89 90/90 91/91 92/92
f 93/93 94/94 95/95 96/96
f 97/97 98/98 99/99 100/100
f 101/101 102/102 103/103 104/104
g aperture_ring_R
usemtl MAT_Hero
f 105/105 106/106 107/107 108/108
f 109/109 110/110 111/111 112/112
f 113/113 114/114 115/115 116/116
f 117/117 118/118 119/119 120/120
g aperture_facing_L
usemtl MAT_Accent
f 121/121 122/122 123/123 124/124
f 125/125 126/126 127/127 128/128
f 129/129 130/130 131/131 132/132
f 133/133 134/134 135/135 136/136
g aperture_facing_R
usemtl MAT_Accent
f 137/137 138/138 139/139 140/140
f 141/141 142/142 143/143 144/144
f 145/145 146/146 147/147 148/148
f 149/149 150/150 151/151 152/152
