mtllib noctis-drape-hoodie.mtl

o hood_shell
g hood_shell
usemtl MAT_Noctis_Shell
v -0.24 0.00 1.72
v 0.24 0.00 1.72
v 0.20 0.00 1.40
v -0.20 0.00 1.40
vt 0 0
vt 1 0
vt 1 1
vt 0 1
f 1/1 2/2 3/3 4/4

o shoulder_yoke
g shoulder_yoke
usemtl MAT_Noctis_Shell
v -0.38 0.00 1.38
v 0.38 0.00 1.38
v 0.30 0.00 1.18
v -0.30 0.00 1.18
vt 0 0
vt 1 0
vt 1 1
vt 0 1
f 5/5 6/6 7/7 8/8

o sleeve_L
g sleeve_L
usemtl MAT_Noctis_Shell
v -0.38 0.00 1.34
v -0.70 0.00 1.24
v -0.62 0.00 0.82
v -0.32 0.00 1.02
vt 0 0
vt 1 0
vt 1 1
vt 0 1
f 9/9 10/10 11/11 12/12

o sleeve_R
g sleeve_R
usemtl MAT_Noctis_Shell
v 0.38 0.00 1.34
v 0.70 0.00 1.24
v 0.62 0.00 0.82
v 0.32 0.00 1.02
vt 0 0
vt 1 0
vt 1 1
vt 0 1
f 13/13 14/14 15/15 16/16

o inner_top
g inner_top
usemtl MAT_Noctis_Inner
v -0.22 -0.02 1.24
v 0.22 -0.02 1.24
v 0.20 -0.02 0.90
v -0.20 -0.02 0.90
vt 0 0
vt 1 0
vt 1 1
vt 0 1
f 17/17 18/18 19/19 20/20

o drape_front_L
g drape_front_L
usemtl MAT_Noctis_Drape
v -0.30 0.00 0.96
v -0.04 0.00 0.96
v -0.08 0.00 0.10
v -0.42 0.00 0.10
vt 0 0
vt 1 0
vt 1 1
vt 0 1
f 21/21 22/22 23/23 24/24

o drape_front_R
g drape_front_R
usemtl MAT_Noctis_Drape
v 0.04 0.00 0.96
v 0.30 0.00 0.96
v 0.42 0.00 0.10
v 0.08 0.00 0.10
vt 0 0
vt 1 0
vt 1 1
vt 0 1
f 25/25 26/26 27/27 28/28

o drape_back_L
g drape_back_L
usemtl MAT_Noctis_Drape
v -0.32 -0.06 0.94
v -0.02 -0.06 0.94
v -0.05 -0.06 0.08
v -0.46 -0.06 0.08
vt 0 0
vt 1 0
vt 1 1
vt 0 1
f 29/29 30/30 31/31 32/32

o drape_back_R
g drape_back_R
usemtl MAT_Noctis_Drape
v 0.02 -0.06 0.94
v 0.32 -0.06 0.94
v 0.46 -0.06 0.08
v 0.05 -0.06 0.08
vt 0 0
vt 1 0
vt 1 1
vt 0 1
f 33/33 34/34 35/35 36/36

o waist_harness
g waist_harness
usemtl MAT_Noctis_Harness
v -0.34 0.02 1.02
v 0.34 0.02 1.02
v 0.34 0.02 0.92
v -0.34 0.02 0.92
vt 0 0
vt 1 0
vt 1 1
vt 0 1
f 37/37 38/38 39/39 40/40

o split_drape_gate_L
g split_drape_gate_L
usemtl MAT_Noctis_Drape
v -0.30 0.03 0.96
v -0.12 0.03 0.96
v -0.18 0.03 0.20
v -0.38 0.03 0.20
vt 0 0
vt 1 0
vt 1 1
vt 0 1
f 41/41 42/42 43/43 44/44

o split_drape_gate_R
g split_drape_gate_R
usemtl MAT_Noctis_Drape
v 0.12 0.03 0.96
v 0.30 0.03 0.96
v 0.38 0.03 0.20
v 0.18 0.03 0.20
vt 0 0
vt 1 0
vt 1 1
vt 0 1
f 45/45 46/46 47/47 48/48
