mtllib cascade-pleat-vest-set.mtl
v -0.700 0.000 0.000
v -0.450 0.000 0.000
v -0.450 0.200 0.000
v -0.700 0.200 0.000
vt 0 0
vt 1 0
vt 1 1
vt 0 1
o vest_front_L
g vest_front_L
usemtl MAT_Vest
f 1/1 2/2 3/3 4/4
v -0.350 0.000 0.000
v -0.100 0.000 0.000
v -0.100 0.200 0.000
v -0.350 0.200 0.000
vt 0 0
vt 1 0
vt 1 1
vt 0 1
o vest_front_R
g vest_front_R
usemtl MAT_Vest
f 5/5 6/6 7/7 8/8
v 0.000 0.000 0.000
v 0.250 0.000 0.000
v 0.250 0.200 0.000
v 0.000 0.200 0.000
vt 0 0
vt 1 0
vt 1 1
vt 0 1
o vest_back
g vest_back
usemtl MAT_Vest
f 9/9 10/10 11/11 12/12
v 0.350 0.000 0.000
v 0.600 0.000 0.000
v 0.600 0.200 0.000
v 0.350 0.200 0.000
vt 0 0
vt 1 0
vt 1 1
vt 0 1
o inner_front
g inner_front
usemtl MAT_Inner
f 13/13 14/14 15/15 16/16
v 0.700 0.000 0.000
v 0.950 0.000 0.000
v 0.950 0.200 0.000
v 0.700 0.200 0.000
vt 0 0
vt 1 0
vt 1 1
vt 0 1
o inner_back
g inner_back
usemtl MAT_Inner
f 17/17 18/18 19/19 20/20
v -0.700 0.300 0.000
v -0.450 0.300 0.000
v -0.450 0.500 0.000
v -0.700 0.500 0.000
vt 0 0
vt 1 0
vt 1 1
vt 0 1
o sleeve_L
g sleeve_L
usemtl MAT_Inner
f 21/21 22/22 23/23 24/24
v -0.350 0.300 0.000
v -0.100 0.300 0.000
v -0.100 0.500 0.000
v -0.350 0.500 0.000
vt 0 0
vt 1 0
vt 1 1
vt 0 1
o sleeve_R
g sleeve_R
usemtl MAT_Inner
f 25/25 26/26 27/27 28/28
v 0.000 0.300 0.000
v 0.250 0.300 0.000
v 0.250 0.500 0.000
v 0.000 0.500 0.000
vt 0 0
vt 1 0
vt 1 1
vt 0 1
o trouser_front_L
g trouser_front_L
usemtl MAT_Trouser
f 29/29 30/30 31/31 32/32
v 0.350 0.300 0.000
v 0.600 0.300 0.000
v 0.600 0.500 0.000
v 0.350 0.500 0.000
vt 0 0
vt 1 0
vt 1 1
vt 0 1
o trouser_front_R
g trouser_front_R
usemtl MAT_Trouser
f 33/33 34/34 35/35 36/36
v 0.700 0.300 0.000
v 0.950 0.300 0.000
v 0.950 0.500 0.000
v 0.700 0.500 0.000
vt 0 0
vt 1 0
vt 1 1
vt 0 1
o trouser_back_L
g trouser_back_L
usemtl MAT_Trouser
f 37/37 38/38 39/39 40/40
v -0.700 0.600 0.000
v -0.450 0.600 0.000
v -0.450 0.800 0.000
v -0.700 0.800 0.000
vt 0 0
vt 1 0
vt 1 1
vt 0 1
o trouser_back_R
g trouser_back_R
usemtl MAT_Trouser
f 41/41 42/42 43/43 44/44
v -0.350 0.600 0.000
v -0.100 0.600 0.000
v -0.100 0.800 0.000
v -0.350 0.800 0.000
vt 0 0
vt 1 0
vt 1 1
vt 0 1
o waistband
g waistband
usemtl MAT_Trouser
f 45/45 46/46 47/47 48/48
v 0.000 0.600 0.000
v 0.250 0.600 0.000
v 0.250 0.800 0.000
v 0.000 0.800 0.000
vt 0 0
vt 1 0
vt 1 1
vt 0 1
o cascade_pleat_A
g cascade_pleat_A
usemtl MAT_Pleat
f 49/49 50/50 51/51 52/52
v 0.350 0.600 0.000
v 0.600 0.600 0.000
v 0.600 0.800 0.000
v 0.350 0.800 0.000
vt 0 0
vt 1 0
vt 1 1
vt 0 1
o cascade_pleat_B
g cascade_pleat_B
usemtl MAT_Pleat
f 53/53 54/54 55/55 56/56
v 0.700 0.600 0.000
v 0.950 0.600 0.000
v 0.950 0.800 0.000
v 0.700 0.800 0.000
vt 0 0
vt 1 0
vt 1 1
vt 0 1
o waist_bridge_L
g waist_bridge_L
usemtl MAT_Accent
f 57/57 58/58 59/59 60/60
v -0.700 0.900 0.000
v -0.450 0.900 0.000
v -0.450 1.100 0.000
v -0.700 1.100 0.000
vt 0 0
vt 1 0
vt 1 1
vt 0 1
o pleat_edge_facing
g pleat_edge_facing
usemtl MAT_Accent
f 61/61 62/62 63/63 64/64
v -0.350 0.900 0.000
v -0.100 0.900 0.000
v -0.100 1.100 0.000
v -0.350 1.100 0.000
vt 0 0
vt 1 0
vt 1 1
vt 0 1
o vyoke_back
g vyoke_back
usemtl MAT_Vest
f 65/65 66/66 67/67 68/68
