mtllib structural.mtl
o ParallaxCollarJacketSet
v -0.520000 0.000000 0.760000
v -0.360000 0.000000 0.760000
v -0.360000 0.000000 0.940000
v -0.520000 0.000000 0.940000
v -0.300000 0.050000 0.760000
v -0.140000 0.050000 0.760000
v -0.140000 0.050000 0.940000
v -0.300000 0.050000 0.940000
v -0.080000 0.000000 0.760000
v 0.080000 0.000000 0.760000
v 0.080000 0.000000 0.940000
v -0.080000 0.000000 0.940000
v 0.140000 0.050000 0.760000
v 0.300000 0.050000 0.760000
v 0.300000 0.050000 0.940000
v 0.140000 0.050000 0.940000
v 0.360000 0.000000 0.760000
v 0.520000 0.000000 0.760000
v 0.520000 0.000000 0.940000
v 0.360000 0.000000 0.940000
v -0.520000 0.050000 1.000000
v -0.360000 0.050000 1.000000
v -0.360000 0.050000 1.180000
v -0.520000 0.050000 1.180000
v -0.300000 0.000000 1.000000
v -0.140000 0.000000 1.000000
v -0.140000 0.000000 1.180000
v -0.300000 0.000000 1.180000
v -0.080000 0.050000 1.000000
v 0.080000 0.050000 1.000000
v 0.080000 0.050000 1.180000
v -0.080000 0.050000 1.180000
v 0.140000 0.000000 1.000000
v 0.300000 0.000000 1.000000
v 0.300000 0.000000 1.180000
v 0.140000 0.000000 1.180000
v 0.360000 0.050000 1.000000
v 0.520000 0.050000 1.000000
v 0.520000 0.050000 1.180000
v 0.360000 0.050000 1.180000
v -0.520000 0.000000 1.240000
v -0.360000 0.000000 1.240000
v -0.360000 0.000000 1.420000
v -0.520000 0.000000 1.420000
v -0.250000 0.050000 1.490000
v -0.030000 0.050000 1.490000
v -0.030000 0.050000 1.590000
v -0.250000 0.050000 1.590000
v 0.015000 0.000000 1.430000
v 0.185000 0.000000 1.430000
v 0.185000 0.000000 1.530000
v 0.015000 0.000000 1.530000
v 0.070000 0.050000 1.490000
v 0.290000 0.050000 1.490000
v 0.290000 0.050000 1.590000
v 0.070000 0.050000 1.590000
v -0.285000 0.000000 1.430000
v -0.115000 0.000000 1.430000
v -0.115000 0.000000 1.530000
v -0.285000 0.000000 1.530000
vt 0.000000 0.000000
vt 1.000000 0.000000
vt 1.000000 1.000000
vt 0.000000 1.000000
vt 0.000000 0.000000
vt 1.000000 0.000000
vt 1.000000 1.000000
vt 0.000000 1.000000
vt 0.000000 0.000000
vt 1.000000 0.000000
vt 1.000000 1.000000
vt 0.000000 1.000000
vt 0.000000 0.000000
vt 1.000000 0.000000
vt 1.000000 1.000000
vt 0.000000 1.000000
vt 0.000000 0.000000
vt 1.000000 0.000000
vt 1.000000 1.000000
vt 0.000000 1.000000
vt 0.000000 0.000000
vt 1.000000 0.000000
vt 1.000000 1.000000
vt 0.000000 1.000000
vt 0.000000 0.000000
vt 1.000000 0.000000
vt 1.000000 1.000000
vt 0.000000 1.000000
vt 0.000000 0.000000
vt 1.000000 0.000000
vt 1.000000 1.000000
vt 0.000000 1.000000
vt 0.000000 0.000000
vt 1.000000 0.000000
vt 1.000000 1.000000
vt 0.000000 1.000000
vt 0.000000 0.000000
vt 1.000000 0.000000
vt 1.000000 1.000000
vt 0.000000 1.000000
vt 0.000000 0.000000
vt 1.000000 0.000000
vt 1.000000 1.000000
vt 0.000000 1.000000
vt 0.000000 0.000000
vt 1.000000 0.000000
vt 1.000000 1.000000
vt 0.000000 1.000000
vt 0.000000 0.000000
vt 1.000000 0.000000
vt 1.000000 1.000000
vt 0.000000 1.000000
vt 0.000000 0.000000
vt 1.000000 0.000000
vt 1.000000 1.000000
vt 0.000000 1.000000
vt 0.000000 0.000000
vt 1.000000 0.000000
vt 1.000000 1.000000
vt 0.000000 1.000000
g jacket_front_L
usemtl MAT_Shell
f 1/1 2/2 3/3 4/4
g jacket_front_R
usemtl MAT_Shell
f 5/5 6/6 7/7 8/8
g jacket_back
usemtl MAT_Shell
f 9/9 10/10 11/11 12/12
g sleeve_L
usemtl MAT_Shell
f 13/13 14/14 15/15 16/16
g sleeve_R
usemtl MAT_Shell
f 17/17 18/18 19/19 20/20
g inner_front
usemtl MAT_Inner
f 21/21 22/22 23/23 24/24
g inner_back
usemtl MAT_Inner
f 25/25 26/26 27/27 28/28
g trouser_front_L
usemtl MAT_Bottoms
f 29/29 30/30 31/31 32/32
g trouser_front_R
usemtl MAT_Bottoms
f 33/33 34/34 35/35 36/36
g trouser_back_L
usemtl MAT_Bottoms
f 37/37 38/38 39/39 40/40
g trouser_back_R
usemtl MAT_Bottoms
f 41/41 42/42 43/43 44/44
g parallax_collar_outer
usemtl MAT_Hero
f 45/45 46/46 47/47 48/48
g parallax_collar_inner
usemtl MAT_Accent
f 49/49 50/50 51/51 52/52
g collar_facing_outer
usemtl MAT_Hero
f 53/53 54/54 55/55 56/56
g collar_facing_inner
usemtl MAT_Accent
f 57/57 58/58 59/59 60/60
