mtllib moonlit-tech-parka.mtl
o shell_front_L
g shell_front_L
usemtl MAT_Shell
v -0.3600 0.1050 1.0000
v -0.0200 0.1050 1.0000
v -0.0200 0.1050 1.6200
v -0.3600 0.1050 1.6200
vt 0.0 0.0
vt 1.0 0.0
vt 1.0 1.0
vt 0.0 1.0
f 1/1 2/2 3/3 4/4
o shell_front_R
g shell_front_R
usemtl MAT_Shell
v -0.0000 0.1050 1.0000
v 0.3600 0.1050 1.0000
v 0.3600 0.1050 1.6200
v -0.0000 0.1050 1.6200
vt 0.0 0.0
vt 1.0 0.0
vt 1.0 1.0
vt 0.0 1.0
f 5/5 6/6 7/7 8/8
o shell_back
g shell_back
usemtl MAT_Shell
v -0.3600 -0.1000 1.0000
v 0.3600 -0.1000 1.0000
v 0.3600 -0.1000 1.6200
v -0.3600 -0.1000 1.6200
vt 0.0 0.0
vt 1.0 0.0
vt 1.0 1.0
vt 0.0 1.0
f 9/9 10/10 11/11 12/12
o sleeve_L
g sleeve_L
usemtl MAT_Shell
v -0.7800 0.0250 1.0400
v -0.3800 0.0250 1.0400
v -0.3800 0.0250 1.5800
v -0.7800 0.0250 1.5800
vt 0.0 0.0
vt 1.0 0.0
vt 1.0 1.0
vt 0.0 1.0
f 13/13 14/14 15/15 16/16
o sleeve_R
g sleeve_R
usemtl MAT_Shell
v 0.3800 0.0250 1.0400
v 0.7800 0.0250 1.0400
v 0.7800 0.0250 1.5800
v 0.3800 0.0250 1.5800
vt 0.0 0.0
vt 1.0 0.0
vt 1.0 1.0
vt 0.0 1.0
f 17/17 18/18 19/19 20/20
o inner_front
g inner_front
usemtl MAT_Inner
v -0.2700 0.1500 1.0800
v 0.2700 0.1500 1.0800
v 0.2700 0.1500 1.4600
v -0.2700 0.1500 1.4600
vt 0.0 0.0
vt 1.0 0.0
vt 1.0 1.0
vt 0.0 1.0
f 21/21 22/22 23/23 24/24
o inner_back
g inner_back
usemtl MAT_Inner
v -0.2700 -0.1400 1.0800
v 0.2700 -0.1400 1.0800
v 0.2700 -0.1400 1.4600
v -0.2700 -0.1400 1.4600
vt 0.0 0.0
vt 1.0 0.0
vt 1.0 1.0
vt 0.0 1.0
f 25/25 26/26 27/27 28/28
o short_front_L
g short_front_L
usemtl MAT_Bottoms
v -0.3400 0.1350 0.7800
v -0.0200 0.1350 0.7800
v -0.0200 0.1350 1.0400
v -0.3400 0.1350 1.0400
vt 0.0 0.0
vt 1.0 0.0
vt 1.0 1.0
vt 0.0 1.0
f 29/29 30/30 31/31 32/32
o short_front_R
g short_front_R
usemtl MAT_Bottoms
v 0.0200 0.1350 0.7800
v 0.3400 0.1350 0.7800
v 0.3400 0.1350 1.0400
v 0.0200 0.1350 1.0400
vt 0.0 0.0
vt 1.0 0.0
vt 1.0 1.0
vt 0.0 1.0
f 33/33 34/34 35/35 36/36
o short_back_L
g short_back_L
usemtl MAT_Bottoms
v -0.3400 -0.1350 0.7800
v -0.0200 -0.1350 0.7800
v -0.0200 -0.1350 1.0400
v -0.3400 -0.1350 1.0400
vt 0.0 0.0
vt 1.0 0.0
vt 1.0 1.0
vt 0.0 1.0
f 37/37 38/38 39/39 40/40
o short_back_R
g short_back_R
usemtl MAT_Bottoms
v 0.0200 -0.1350 0.7800
v 0.3400 -0.1350 0.7800
v 0.3400 -0.1350 1.0400
v 0.0200 -0.1350 1.0400
vt 0.0 0.0
vt 1.0 0.0
vt 1.0 1.0
vt 0.0 1.0
f 41/41 42/42 43/43 44/44
o waistband
g waistband
usemtl MAT_Bottoms
v -0.3500 0.1700 1.0000
v 0.3500 0.1700 1.0000
v 0.3500 0.1700 1.0700
v -0.3500 0.1700 1.0700
vt 0.0 0.0
vt 1.0 0.0
vt 1.0 1.0
vt 0.0 1.0
f 45/45 46/46 47/47 48/48
o suspension_rail_L
g suspension_rail_L
usemtl MAT_Rail
v -0.3000 0.2000 0.6200
v -0.2400 0.2000 0.6200
v -0.2400 0.2000 1.5500
v -0.3000 0.2000 1.5500
vt 0.0 0.0
vt 1.0 0.0
vt 1.0 1.0
vt 0.0 1.0
f 49/49 50/50 51/51 52/52
o suspension_rail_R
g suspension_rail_R
usemtl MAT_Rail
v 0.2400 0.2000 0.6200
v 0.3000 0.2000 0.6200
v 0.3000 0.2000 1.5500
v 0.2400 0.2000 1.5500
vt 0.0 0.0
vt 1.0 0.0
vt 1.0 1.0
vt 0.0 1.0
f 53/53 54/54 55/55 56/56
o rail_anchor_L
g rail_anchor_L
usemtl MAT_Rail
v -0.3400 0.2100 1.4600
v -0.2000 0.2100 1.4600
v -0.2000 0.2100 1.6000
v -0.3400 0.2100 1.6000
vt 0.0 0.0
vt 1.0 0.0
vt 1.0 1.0
vt 0.0 1.0
f 57/57 58/58 59/59 60/60
o rail_anchor_R
g rail_anchor_R
usemtl MAT_Rail
v 0.2000 0.2100 1.4600
v 0.3400 0.2100 1.4600
v 0.3400 0.2100 1.6000
v 0.2000 0.2100 1.6000
vt 0.0 0.0
vt 1.0 0.0
vt 1.0 1.0
vt 0.0 1.0
f 61/61 62/62 63/63 64/64
