mtllib crosswind-vent-shirt-set-prototype.mtl
o CrosswindVentShirtSet_Prototype
g shirt_front_L
usemtl fabric_outer
v -0.3600 0.1100 1.4200
v -0.0300 0.1100 1.4200
v -0.0400 0.1200 0.9800
v -0.3800 0.1200 0.9800
vt 0 0
vt 1 0
vt 1 1
vt 0 1
f 1/1 2/2 3/3 4/4
g shirt_front_R
usemtl fabric_outer
v 0.0300 0.1100 1.4200
v 0.3600 0.1100 1.4200
v 0.3800 0.1200 0.9800
v 0.0400 0.1200 0.9800
vt 0 0
vt 1 0
vt 1 1
vt 0 1
f 5/5 6/6 7/7 8/8
g shirt_back
usemtl fabric_outer
v -0.3600 -0.1300 1.4200
v 0.3600 -0.1300 1.4200
v 0.3800 -0.1400 0.9800
v -0.3800 -0.1400 0.9800
vt 0 0
vt 1 0
vt 1 1
vt 0 1
f 9/9 10/10 11/11 12/12
g sleeve_L
usemtl fabric_outer
v -0.3800 0.0300 1.3700
v -0.6600 0.0200 1.3000
v -0.6300 0.0300 1.0800
v -0.3900 0.0400 1.1300
vt 0 0
vt 1 0
vt 1 1
vt 0 1
f 13/13 14/14 15/15 16/16
g sleeve_R
usemtl fabric_outer
v 0.3800 0.0300 1.3700
v 0.6600 0.0200 1.3000
v 0.6300 0.0300 1.0800
v 0.3900 0.0400 1.1300
vt 0 0
vt 1 0
vt 1 1
vt 0 1
f 17/17 18/18 19/19 20/20
g inner_front
usemtl fabric_inner
v -0.2200 0.1000 1.3300
v 0.2200 0.1000 1.3300
v 0.2400 0.1100 0.9700
v -0.2400 0.1100 0.9700
vt 0 0
vt 1 0
vt 1 1
vt 0 1
f 21/21 22/22 23/23 24/24
g short_front_L
usemtl fabric_inner
v -0.3400 0.1000 0.9600
v -0.0200 0.1000 0.9600
v -0.0500 0.1100 0.5500
v -0.3300 0.1100 0.5500
vt 0 0
vt 1 0
vt 1 1
vt 0 1
f 25/25 26/26 27/27 28/28
g short_front_R
usemtl fabric_inner
v 0.0200 0.1000 0.9600
v 0.3400 0.1000 0.9600
v 0.3300 0.1100 0.5500
v 0.0500 0.1100 0.5500
vt 0 0
vt 1 0
vt 1 1
vt 0 1
f 29/29 30/30 31/31 32/32
g short_back
usemtl fabric_inner
v -0.3400 -0.1100 0.9600
v 0.3400 -0.1100 0.9600
v 0.3200 -0.1200 0.5500
v -0.3200 -0.1200 0.5500
vt 0 0
vt 1 0
vt 1 1
vt 0 1
f 33/33 34/34 35/35 36/36
g back_vent_L
usemtl accent
v -0.0500 -0.1600 1.3100
v -0.3500 -0.1700 1.2200
v -0.1500 -0.2800 1.1300
v -0.0400 -0.1800 1.2000
vt 0 0
vt 1 0
vt 1 1
vt 0 1
f 37/37 38/38 39/39 40/40
g back_vent_R
usemtl accent
v 0.0500 -0.1600 1.3100
v 0.3500 -0.1700 1.2200
v 0.1500 -0.2800 1.1300
v 0.0400 -0.1800 1.2000
vt 0 0
vt 1 0
vt 1 1
vt 0 1
f 41/41 42/42 43/43 44/44
g side_vent_L
usemtl accent
v -0.3700 0.0100 1.0200
v -0.5200 0.0000 0.9500
v -0.3900 -0.0800 0.8400
v -0.3600 0.0000 0.9000
vt 0 0
vt 1 0
vt 1 1
vt 0 1
f 45/45 46/46 47/47 48/48
g side_vent_R
usemtl accent
v 0.3700 0.0100 1.0200
v 0.5200 0.0000 0.9500
v 0.3900 -0.0800 0.8400
v 0.3600 0.0000 0.9000
vt 0 0
vt 1 0
vt 1 1
vt 0 1
f 49/49 50/50 51/51 52/52
g waistband
usemtl trim
v -0.3500 0.1100 0.9800
v 0.3500 0.1100 0.9800
v 0.3500 0.1200 0.9200
v -0.3500 0.1200 0.9200
vt 0 0
vt 1 0
vt 1 1
vt 0 1
f 53/53 54/54 55/55 56/56
g closure_tab
usemtl metal
v -0.0500 0.1300 1.1800
v 0.0500 0.1300 1.1800
v 0.0500 0.1400 1.1300
v -0.0500 0.1400 1.1300
vt 0 0
vt 1 0
vt 1 1
vt 0 1
f 57/57 58/58 59/59 60/60
