<svg xmlns="http://www.w3.org/2000/svg" width="1536" height="1024" viewBox="0 0 1536 1024"><rect width="1536" height="1024" fill="#f4f2ee"/><style>.t{font-family:Arial,sans-serif;fill:#20262b}.h{font:bold 34px Arial}.s{font:18px Arial}.m{font:14px Arial}.p{fill:#fff;stroke:#bbc3c8;stroke-width:2}.n{fill:#39464f}.i{fill:#ece7dc}.a{fill:#a66f61}.b{fill:#7894a4}.c{fill:#2f3539}</style><text x="34" y="55" class="t h">FRAMECUT ZIP SHIRT SET</text><text x="35" y="82" class="t s">VRChat manufacturing sheet / single concept</text><rect x="24" y="108" width="430" height="550" rx="12" class="p"/><text x="45" y="145" class="t s">FINISHED LOOK</text><circle cx="240" cy="220" r="34" fill="#ead7cd" stroke="#20262b"/><path d="M160 270 L205 245 L275 245 L320 270 L300 420 L180 420 Z" class="i" stroke="#20262b"/><path d="M160 270 L120 330 L145 430 L185 405 L180 300 Z" class="b" stroke="#20262b"/><path d="M320 270 L360 330 L335 430 L295 405 L300 300 Z" class="b" stroke="#20262b"/><path d="M205 265 L275 265 L285 355 L195 355 Z" fill="#fff" stroke="#20262b"/><path d="M190 430 L290 430 L305 565 L255 570 L240 455 L225 570 L175 565 Z" class="c" stroke="#20262b"/><rect x="187" y="410" width="106" height="24" class="n"/><rect x="205" y="300" width="70" height="58" fill="none" stroke="#a66f61" stroke-width="8"/><line x1="207" y1="352" x2="273" y2="305" stroke="#7894a4" stroke-width="7"/><text x="53" y="610" class="t m">Hero Detail: framed chest seam + diagonal zipper bridge</text><rect x="474" y="108" width="590" height="550" rx="12" class="p"/><text x="495" y="145" class="t s">FRONT / SIDE / BACK</text><g transform="translate(560,30) scale(.78)"><circle cx="240" cy="220" r="34" fill="#ead7cd" stroke="#20262b"/><path d="M160 270 L205 245 L275 245 L320 270 L300 420 L180 420 Z" class="i" stroke="#20262b"/><path d="M190 430 L290 430 L305 565 L255 570 L240 455 L225 570 L175 565 Z" class="c" stroke="#20262b"/><rect x="205" y="300" width="70" height="58" fill="none" stroke="#a66f61" stroke-width="8"/><line x1="207" y1="352" x2="273" y2="305" stroke="#7894a4" stroke-width="7"/></g><g transform="translate(760,30) scale(.78)"><circle cx="240" cy="220" r="34" fill="#ead7cd" stroke="#20262b"/><path d="M185 270 L260 245 L300 275 L290 420 L205 420 Z" class="i" stroke="#20262b"/><path d="M205 430 L285 430 L295 565 L245 570 L230 455 L215 570 L180 565 Z" class="c" stroke="#20262b"/></g><g transform="translate(930,30) scale(.78)"><circle cx="240" cy="220" r="34" fill="#ead7cd" stroke="#20262b"/><path d="M160 270 L205 245 L275 245 L320 270 L300 420 L180 420 Z" class="i" stroke="#20262b"/><path d="M190 430 L290 430 L305 565 L255 570 L240 455 L225 570 L175 565 Z" class="c" stroke="#20262b"/><path d="M190 285 L240 265 L290 285" fill="none" stroke="#7894a4" stroke-width="7"/></g><text x="565" y="620" class="t m">FRONT</text><text x="773" y="620" class="t m">SIDE</text><text x="950" y="620" class="t m">BACK</text><rect x="1084" y="108" width="428" height="550" rx="12" class="p"/><text x="1105" y="145" class="t s">DETAIL / MATERIAL / COLOR</text><rect x="1110" y="180" width="160" height="120" fill="#ece7dc" stroke="#20262b"/><rect x="1145" y="205" width="90" height="70" fill="none" stroke="#a66f61" stroke-width="8"/><line x1="1147" y1="270" x2="1232" y2="210" stroke="#7894a4" stroke-width="7"/><text x="1290" y="215" class="t m">Frame seam</text><text x="1290" y="240" class="t m">Diagonal zip</text><text x="1290" y="265" class="t m">Named real geometry</text><text x="1110" y="345" class="t s">Palette</text><circle cx="1140" cy="390" r="26" fill="#ece7dc" stroke="#20262b"/><circle cx="1210" cy="390" r="26" fill="#7894a4" stroke="#20262b"/><circle cx="1280" cy="390" r="26" fill="#a66f61" stroke="#20262b"/><circle cx="1350" cy="390" r="26" fill="#39464f" stroke="#20262b"/><circle cx="1420" cy="390" r="26" fill="#aeb5b8" stroke="#20262b"/><text x="1110" y="455" class="t m">compact poplin / matte twill / grosgrain / dark nickel</text><text x="1110" y="490" class="t m">No transparency. No long cloth. No new physics required.</text><rect x="24" y="682" width="980" height="318" rx="12" class="p"/><text x="45" y="718" class="t s">PATTERN / PARTS BREAKDOWN</text><g fill="#e6ebed" stroke="#20262b"><path d="M70 760 L145 748 L170 845 L55 845 Z"/><path d="M200 755 L290 755 L310 845 L180 845 Z"/><path d="M345 758 L415 748 L455 835 L365 850 Z"/><path d="M500 760 L590 760 L600 845 L490 845 Z"/><path d="M650 760 L730 760 L750 850 L640 850 Z"/><path d="M785 760 L865 760 L875 850 L775 850 Z"/><rect x="900" y="760" width="55" height="90"/></g><text x="55" y="880" class="t m">shirt front L/R</text><text x="190" y="880" class="t m">shirt back</text><text x="345" y="880" class="t m">sleeve L/R</text><text x="495" y="880" class="t m">inner top</text><text x="645" y="880" class="t m">trouser front</text><text x="780" y="880" class="t m">trouser back</text><text x="895" y="880" class="t m">waist/facing</text><text x="55" y="925" class="t m">Hero parts: chest_frame_outer / chest_frame_inner / zip_bridge / zip_pull</text><text x="55" y="955" class="t m">Fit zones: shoulder / elbow / waist / hip / crotch / knee</text><rect x="1024" y="682" width="488" height="318" rx="12" class="p"/><text x="1045" y="718" class="t s">BUILD TARGET</text><text x="1045" y="760" class="t m">Target avatar: Siroino first</text><text x="1045" y="795" class="t m">LOD0: <= 22k garment triangles</text><text x="1045" y="830" class="t m">UV0: 0-1, Hero islands unique</text><text x="1045" y="865" class="t m">Materials: shirt / inner / trouser / accent / metal</text><text x="1045" y="900" class="t m">Rig: existing humanoid armature</text><text x="1045" y="935" class="t m">Physics: NOT_REQUIRED first pass</text></svg>