mtllib framecut-zip-shirt-set-prototype.mtl
o shirt_front_L
v -0.42 1.55 0.12
v -0.05 1.55 0.12
v -0.08 1.05 0.14
v -0.46 1.05 0.14
vt 0.02 0.98
vt 0.22 0.98
vt 0.20 0.70
vt 0.00 0.70
usemtl fabric_shirt
g shirt_front_L
f 1/1 2/2 3/3 4/4
o shirt_front_R
v 0.05 1.55 0.12
v 0.42 1.55 0.12
v 0.46 1.05 0.14
v 0.08 1.05 0.14
vt 0.24 0.98
vt 0.44 0.98
vt 0.46 0.70
vt 0.26 0.70
g shirt_front_R
f 5/5 6/6 7/7 8/8
o shirt_back
v -0.42 1.55 -0.10
v 0.42 1.55 -0.10
v 0.46 1.05 -0.12
v -0.46 1.05 -0.12
vt 0.48 0.98
vt 0.88 0.98
vt 0.90 0.70
vt 0.46 0.70
g shirt_back
f 9/9 10/10 11/11 12/12
o inner_front
v -0.28 1.48 0.15
v 0.28 1.48 0.15
v 0.25 1.06 0.16
v -0.25 1.06 0.16
vt 0.02 0.66
vt 0.18 0.66
vt 0.18 0.46
vt 0.02 0.46
usemtl fabric_inner
g inner_front
f 13/13 14/14 15/15 16/16
o trouser_front_L
v -0.38 1.02 0.10
v -0.02 1.02 0.10
v -0.08 0.10 0.08
v -0.32 0.10 0.08
vt 0.22 0.66
vt 0.40 0.66
vt 0.38 0.20
vt 0.24 0.20
usemtl fabric_trouser
g trouser_front_L
f 17/17 18/18 19/19 20/20
o trouser_front_R
v 0.02 1.02 0.10
v 0.38 1.02 0.10
v 0.32 0.10 0.08
v 0.08 0.10 0.08
vt 0.42 0.66
vt 0.60 0.66
vt 0.58 0.20
vt 0.44 0.20
g trouser_front_R
f 21/21 22/22 23/23 24/24
o chest_frame_outer
v -0.22 1.44 0.19
v 0.22 1.44 0.19
v 0.22 1.18 0.19
v -0.22 1.18 0.19
vt 0.62 0.66
vt 0.78 0.66
vt 0.78 0.52
vt 0.62 0.52
usemtl accent
g chest_frame_outer
f 25/25 26/26 27/27 28/28
o chest_frame_inner
v -0.15 1.38 0.195
v 0.15 1.38 0.195
v 0.15 1.24 0.195
v -0.15 1.24 0.195
vt 0.80 0.66
vt 0.92 0.66
vt 0.92 0.58
vt 0.80 0.58
g chest_frame_inner
f 29/29 30/30 31/31 32/32
o zip_bridge
v -0.18 1.22 0.205
v -0.13 1.18 0.205
v 0.18 1.40 0.205
v 0.13 1.44 0.205
vt 0.62 0.48
vt 0.66 0.46
vt 0.90 0.60
vt 0.86 0.62
usemtl metal
g zip_bridge
f 33/33 34/34 35/35 36/36
